<?xml version="1.0" encoding="UTF-8"?>
<svg id="Layer_1" xmlns="http://www.w3.org/2000/svg" version="1.1" viewBox="0 0 988.7 76.2">
  <!-- Generator: Adobe Illustrator 29.0.1, SVG Export Plug-In . SVG Version: 2.1.0 Build 192)  -->
  <defs>
    <style>
      .st0 {
        fill: #2c684f;
      }
    </style>
  </defs>
  <polygon class="st0" points="40.1 0 50.1 28.2 80.1 29.1 56.4 47.4 64.8 76.2 40.1 59.3 15.3 76.2 23.8 47.4 0 29.1 30 28.2 40.1 0"/>
  <polygon class="st0" points="221.7 0 231.8 28.2 261.8 29.1 238 47.4 246.5 76.2 221.7 59.3 197 76.2 205.4 47.4 181.7 29.1 211.6 28.2 221.7 0"/>
  <polygon class="st0" points="403.5 0 413.5 28.2 443.5 29.1 419.8 47.4 428.2 76.2 403.5 59.3 378.7 76.2 387.2 47.4 363.4 29.1 393.4 28.2 403.5 0"/>
  <polygon class="st0" points="585.2 0 595.2 28.2 625.2 29.1 601.5 47.4 609.9 76.2 585.2 59.3 560.4 76.2 568.9 47.4 545.1 29.1 575.1 28.2 585.2 0"/>
  <polygon class="st0" points="766.8 0 776.9 28.2 806.9 29.1 783.1 47.4 791.6 76.2 766.8 59.3 742.1 76.2 750.5 47.4 726.8 29.1 756.7 28.2 766.8 0"/>
  <polygon class="st0" points="948.7 0 958.7 28.2 988.7 29.1 965 47.4 973.4 76.2 948.7 59.3 923.9 76.2 932.4 47.4 908.6 29.1 938.6 28.2 948.7 0"/>
</svg>