<?xml version="1.0" encoding="UTF-8"?>
<svg id="Layer_1" xmlns="http://www.w3.org/2000/svg" version="1.1" viewBox="0 0 431.7 107.9">
  <!-- Generator: Adobe Illustrator 29.0.1, SVG Export Plug-In . SVG Version: 2.1.0 Build 192)  -->
  <defs>
    <style>
      .st0 {
        fill: #231f20;
      }

      .st1 {
        fill: #fff;
      }
    </style>
  </defs>
  <g>
    <path class="st0" d="M52.1.8h7.2v61.4h-7.2V.8Z"/>
    <path class="st0" d="M69.2,17.4c0-7,1.3-11.8,3.8-14.4,2-2,4.8-3.1,8.6-3.1,5.5,0,9,2.3,10.5,6.8.9,2.7,1.4,6.2,1.4,10.7v27.1c0,6.4-.9,11-2.7,14-1.8,2.9-4.9,4.4-9.4,4.4s-7.6-1.5-9.4-4.4-2.7-7.6-2.7-13.9v-27.1h-.1ZM86.3,17c0-3.9-.3-6.7-.9-8.3-.6-1.6-1.9-2.5-3.8-2.5s-3.2.8-4,2.5c-.7,1.7-1.1,4.4-1.1,8.3v27.6c0,4.7.3,7.8,1,9.5s2,2.5,3.9,2.5,3.3-.9,3.9-2.6c.7-1.7,1-4.9,1-9.5v-27.5Z"/>
    <path class="st0" d="M136.4.8h6.6l-7.3,61.4h-7.1l-6.6-45.3-6.9,45.3h-7L100,.8h6.7l5.2,47L118.9.8h5.9l7.1,47L136.4.8Z"/>
    <path class="st0" d="M155.6.8h8.7l10.1,61.4h-6.8l-1.7-11.7h-11.1l-1.6,11.7h-6.9L155.6.8ZM155.5,44.6h9.4l-4.8-32.4h-.1l-4.5,32.4h0Z"/>
    <path class="st0" d="M198.6,19.8c-.4-1.5-.6-3.2-.6-5.3,0-4.4.8-8,2.5-10.6C202.1,1.3,205.3,0,209.9,0s9.5,2.9,10.5,8.6c.5,2.5.7,5.6.7,9.3v3.6h-6.9v-4.1c0-3.9-.2-6.5-.6-7.9-.4-1.3-.9-2.2-1.5-2.7-.6-.4-1.3-.7-2.3-.7-1.7,0-3,.6-3.8,1.9-.8,1.3-1.2,3.2-1.2,5.7s.3,4.3,1,5.5c.7,1.2,1.6,2.3,2.6,3.3,1,1.1,1.6,1.7,1.7,1.8l4.2,4.4c5,5.3,7.5,11.1,7.5,17.6s-.8,9.3-2.5,12.1c-1.6,2.8-4.8,4.2-9.4,4.2s-9.1-2.4-10.6-7.3c-.9-2.7-1.3-6.3-1.3-10.8v-6.3h7v6.2c0,4.5.3,7.6,1,9.4s1.9,2.6,3.6,2.6,3-.4,3.7-1.2,1.1-2.1,1.2-3.8c.1-1.7.2-3.6.2-5.7,0-4.3-1.9-8.2-5.6-12l-4-4c-3.6-3.7-5.8-7.1-6.7-10.1l.2.2Z"/>
    <path class="st0" d="M225.6.8h20.3v6h-6.3v55.4h-7.2V6.8h-6.8V.8Z"/>
    <path class="st0" d="M251.2,17.4c0-7,1.3-11.8,3.8-14.4,2-2,4.8-3.1,8.6-3.1,5.5,0,9,2.3,10.5,6.8.9,2.7,1.4,6.2,1.4,10.7v27.1c0,6.4-.9,11-2.7,14-1.8,2.9-4.9,4.4-9.4,4.4s-7.6-1.5-9.4-4.4-2.7-7.6-2.7-13.9v-27.1h-.1ZM268.2,17c0-3.9-.3-6.7-.9-8.3-.6-1.6-1.9-2.5-3.8-2.5s-3.2.8-4,2.5c-.7,1.7-1.1,4.4-1.1,8.3v27.6c0,4.7.3,7.8,1,9.5s2,2.5,3.9,2.5,3.3-.9,3.9-2.6c.7-1.7,1-4.9,1-9.5v-27.5Z"/>
    <path class="st0" d="M284.8.8h12.9c3.6,0,6.3.8,7.9,2.3,1.6,1.5,2.6,4.1,2.9,7.7.1,1.5.2,3.8.2,7s-.4,5.8-1.2,7.9c-.8,2.1-2.3,3.5-4.4,4.1,1.5.3,2.7,1.1,3.5,2.4.8,1.4,1.3,3.5,1.7,6.5.3,3,.5,7.4.5,13.2s.2,9.3.6,10.2h-7.2c-.4-.7-.6-7.6-.6-20.7s-.4-6.9-1.3-7.7c-.9-.7-2.2-1.1-3.9-1.1l-4.3-.2v29.6h-7.2V.8h-.1ZM301.5,15.8c0-4.7-.4-7.4-1.3-8.2-.8-.7-2.1-1.1-3.7-1.1h-4.5v20.7h4.6c1.4,0,2.4-.3,3.1-.8s1.1-1.6,1.4-3.1.4-3.9.4-7.1v-.4Z"/>
    <path class="st0" d="M318.5.8h7.2v61.4h-7.2V.8Z"/>
    <path class="st0" d="M336.4.8h18.3v6h-11.1v21h10.5v6h-10.5v22.4h11.3v6h-18.5V.8h0Z"/>
    <path class="st0" d="M362.5,19.8c-.4-1.5-.6-3.2-.6-5.3,0-4.4.8-8,2.5-10.6C366,1.3,369.2,0,373.8,0s9.5,2.9,10.5,8.6c.5,2.5.7,5.6.7,9.3v3.6h-6.9v-4.1c0-3.9-.2-6.5-.6-7.9-.4-1.3-.9-2.2-1.5-2.7-.6-.4-1.3-.7-2.3-.7-1.7,0-3,.6-3.8,1.9-.8,1.3-1.2,3.2-1.2,5.7s.3,4.3,1,5.5,1.6,2.3,2.6,3.3c1,1.1,1.6,1.7,1.7,1.8l4.2,4.4c5,5.3,7.5,11.1,7.5,17.6s-.8,9.3-2.5,12.1c-1.6,2.8-4.8,4.2-9.4,4.2s-9.1-2.4-10.6-7.3c-.9-2.7-1.3-6.3-1.3-10.8v-6.3h7v6.2c0,4.5.3,7.6,1,9.4.6,1.8,1.9,2.6,3.6,2.6s3-.4,3.7-1.2,1.1-2.1,1.2-3.8.2-3.6.2-5.7c0-4.3-1.9-8.2-5.6-12l-4-4c-3.6-3.7-5.8-7.1-6.7-10.1l.2.2Z"/>
  </g>
  <g>
    <path class="st1" d="M39.2,49.5c0,0,.3,0,.4,0-.2,1-.6,1.9-1.2,2.7-2.1,2.7-4.1,5.4-6,8.3-.8,1.2-1.7,2.4-2.6,3.6-.5.7-.9,1.5-1.1,2.4,0,.4-.3.8-.6,1.2-.2.2-.3.4-.5.6h-.8c-.2,0-.5,0-.7,0-.4.2-.8,0-1.2,0-.8-.2-1.6-.5-2.3-.7-.5,0-.9-.2-1.4-.3-1,0-2,0-3,0s-1.1,0-1.6,0c-.8.2-1.6.2-2.3.2h-.2c.1.2.2.4.3.5.4.2.7.4,1.1.5,1.1.3,2.1.9,3.1,1.4.8.3,1.2,1,1.5,1.7.4,1,.2,1.9-.5,2.8-.3.4-.6.7-1.1.9-.2,0-.5.3-.8.5.4,0,.6,0,.8.2.2,0,.3.3.5.4.5.2,1.1.3,1.7.4.4.4.9,1,1.1,1.7,0,.3.2.5.1.8-.1.7-.3,1.4-.8,2-.4.5-.8,1.1-1.2,1.7-1.8,2.1-3.6,4.2-5.4,6.3-.9,1.1-1.8,2.2-2.7,3.3-.7.8-1.4,1.6-2.1,2.4-1.2,1.6-2.6,3.1-3.7,4.9-.4.6-.7,1.3-1,2-.2.7-.6,1.2-1.1,1.8-.3,0-.5-.2-.8-.3-.3,0-.6.3-.8.3-.4,0-.9,0-1.3-.2-.6-.2-.9-.7-.9-1.3s.2-1.2.3-1.8c0-.2.2-.5.2-.7-.1,0-.3-.2-.3-.2.2-.6.4-1.3.7-1.8.7-1.3,1.5-2.5,2.4-3.6,1.2-1.5,2.4-3.1,3.6-4.6.9-1.1,1.9-2.2,2.9-3.4,1-1.1,2-2.3,2.9-3.4v-.2c-.2,0-.5,0-.7,0-1.3.3-2.7.2-4.1,0-.6,0-1.2-.3-1.7-.4-.2,0-.4,0-.5,0-.5,0-.9-.3-1.2-.7-.3-.4-.5-.9-.4-1.5,0-.6.3-1.1.5-1.6.2-.4.4-.7,0-1.1.7-1.3,1.6-2.1,2.9-2.7.7-.3,1.3-.7,1.9-1.1.5-.3,1-.6,1.7-.9-.5-.2-.8-.4-1.1-.6-.7-.3-1.4-.8-2-1.3-.6-.5-1-1.1-1.2-1.8-.2-.6-.2-1.2,0-1.8,0-.3.2-.6.4-.9,0-.3.2-.5.2-.8s0-.6.2-.9c.5-.9,1.2-1.5,2.2-1.7.4,0,.8-.2,1.3-.3.8,0,1.6-.2,2.3-.3,2-.2,4-.2,6,0,1.3,0,2.5.2,3.7.6.4,0,.9.2,1.4.3,0,0,.2,0,.2-.2.4-1.3,1.2-2.5,1.9-3.7.7-1.1,1.6-2.1,2.3-3.2.7-1,1.3-2,2-3,.4-.5.8-1.1,1.2-1.6,1-1.4,2.1-2.8,3.1-4.1.2-.2.4-.4.5-.6.2,0,.4,0,.5.2.6.5,1.3.6,2,.8.4,0,.6.3.8.6s.4.7,0,1h0v.2Z"/>
    <path class="st1" d="M74.8,46.3h0c-.3.5-.7.8-.8,1.3-.4,0-.6.3-.7.7,0,.3-.5.4-.5.7s0,.2-.2.3c-.3.3-.6.7-.9,1s-.4.7-.6,1-.5.6-.8.9c-.3.3-.5.6-.8.9,0,.5-.4.6-.6.9-.2.3-.5.6-.8.9-.3.3-.5.6-.8.9-.4.3-.4.8-.7,1.1-.3.3-.7.5-.8,1.1,0,0,0,0-.2.2-.4.5-.9.9-1.3,1.4,0,.7-.7,1-1.1,1.5-.2.3-.3.7-.6,1-.3.2-.7.5-.8.9-.2.5-.5.8-.9,1.1-.3.3-.3.8-.6,1s-.7.5-.8.9c-.2.5-.5.8-.9,1.2,0,.6-.5.8-.8,1.2,0,.3-.2.5-.4.7-.3.4-.8.7-1,1.2,0,.5-.8.6-.8,1.2,0,0,0,0-.2.2-.3.3-.7.6-.8,1-.2.5-.5.7-.8,1-.2.2-.2.6-.4.8-.3.2-.5.4-.6.9,0,.3-.5.4-.5.8s-.2.3-.3.4c-.2.3-.6.5-.7.9,0,.4-.5.5-.6.8-.2.6-.7.9-1,1.4-.2.3-.3.7-.6.9-.4.2-.4.7-.6,1-.2.2-.4.5-.6.9-.2.4-.7.7-.8,1.2,0,0-.4,0-.4.2s0,.3-.2.5c0,.3-.2.6-.5.8-.3.2-.3.6-.6.9-.2.2-.3.5-.5.8-.2.2,0,.3,0,.4q.2.2.3,0c0-.2,0-.3.3-.3h1.2c.4,0,.8,0,1.1-.3h.4c0,0,.2,0,.2.3h0c0,.3-.2.2-.3,0,0,0,0,0-.2,0,0,.2-.2.2-.4.2s-.4,0-.4.2.2,0,.3,0h0s0,.2,0,.2h-.4c-.4,0-.7,0-1.1.3,0,0,0,0-.2,0,0,0,0,0,.2,0,.2,0,.4,0,.6.2.2.2.4.2.5,0s.3,0,.5,0c.2,0,.4.2.5.3h.6s0,0,0,.2c0,.3.3.4.4.3.3-.4.6-.4,1,0h.3v-.2c-.2-.2-.4-.2-.6-.4,0,0-.3-.2-.2-.4h.3c.4,0,.6-.3.6-.8.2,0,.2,0,.3-.2s.3,0,.3,0c.2.2.3.3.5,0,0,0,.4,0,.6,0s0,0,0,.2c0,0-.2.2-.2.3,0,.2,0,.2.2.2.3,0,.4-.4.7-.3h.6c0,0,.2.3.3.4h0s0,0-.2-.4c.2,0,.2-.2,0-.2-.2-.3-.2-.5-.2-.7,0,0,0,0,.2,0,0,0,.2.3.4,0h0c.5-.2,1.1.2,1.6-.3,0,0,0,0,0,.2,0,.2,0,.5.3.2.2-.2.5,0,.7,0,.2.3.2.4.4.2.2-.2.4-.3.6,0h0c.2-.4.6,0,.8-.3.2-.2.4-.5.6-.7h.2c.3,0,0-.2,0-.4v-.2h1.3c.2.3.3.2.6,0,.2,0,.5,0,.7-.2,0-.2.3,0,.4,0h.2s0-.2.2-.2c.3,0,.7,0,1-.2.3-.3.7,0,1,0,.5,0,1,.3,1.5-.3h1.2c.3,0,.6.3.9.3h1c.3,0,.5.5.9.3,0,0,.3.2.4.3l.4.4c.2.2.3.4.5.6,0,.5.4.8.3,1.3,0,.3,0,.6-.3.9v.4c0,0,.3.2.4.4.3.4-.2.5-.2.8s-.2.5-.5.5c-.4-.4-.9-.3-1.3-.3s-.4,0-.6.2h-.2s0,0-.2,0c-.2-.2-.5,0-.6-.4,0-.2-.3-.3-.5-.3h-.8c-.3-.5-.7-.2-1.1-.3h-1.2c-.3,0-.5.3-.8.3h-1.8c-.6,0-1.2-.2-1.7.3s-.4,0-.6,0c-.6,0-1.2-.2-1.7.3s-.4,0-.6,0c-.4,0-1-.2-1.3.3h-1.3c-.4,0-1-.2-1.3.3,0,0,0,0-.2-.2h-.2c-.3,0-.5.3-.8.3h-.8c-.4,0-.5.3-.8.3h-.9s0,.3-.3.2c-.4-.3-.7-.3-1,0,0,0-.4,0-.4-.2v-.5c-.2-.2-.5-.3-.8-.4-.3,0-.7,0-.9.3,0,.2-.3.4-.4.7,0,.2-.5,0-.6.4,0,.2-.3.3-.5.3h-.8c-.2,0-.3,0-.4.2,0,0-.3,0-.4,0-.2-.2-.3-.3-.5-.4h-.2v.4c0,0-.1.3-.3.4h-.8c-.2.2-.4.2-.7.2h-1.2c-.2.4-.6.2-.9.3-.2,0-.3.4-.5.3-.3,0-.4.3-.7.3h-.8c-.3,0-.5.4-.8.3h-.9c-.4.5-.9.2-1.3.3-.4,0-.6-.4-1.1-.3v-.7h-.5s-.2,0-.2,0v-1.7c0-.2.3-.3,0-.5-.1,0,.1-.3.2-.4.2-.2.5-.3.8-.4.3,0,.5,0,.6-.4.2-.3.5-.2.6-.4,0-.2.3,0,.5,0,.3,0,.5-.3.8-.3s.5-.2.7-.4c.2-.2.3,0,.4,0h.2c0-.3,0-.4.4-.4h.7c.2,0,.3,0,.3-.3s.3-.3.4-.5c0-.2,0-.5.3-.6.3-.2.3-.6.5-.9s.4-.7.7-1c.2-.3.4-.5.6-.9,0-.4.6-.5.7-.9,0-.4.6-.4.5-.9.3-.3.5-.6.8-.9,0-.5.6-.6.6-1.1.3-.3.7-.6.9-1,.2-.5.5-.8.9-1.2,0-.5.6-.6.6-1.1.3-.3.6-.6.8-.9,0-.4.4-.6.6-.8.3-.3.4-.7.6-1s.5-.5.7-1c0-.3.5-.4.6-.7,0-.3.2-.5.5-.8s.6-.6.8-1.1c.2-.4.6-.6.7-1.1.2-.4.6-.7.8-1.2,0-.4.6-.6.7-1.1,0-.4.5-.6.8-.9.2-.3.3-.7.6-1,.3-.2.6-.5.7-.8.2-.3.3-.6.6-.9.3-.2.3-.6.5-.9.3-.2.6-.5.7-.8.2-.6.7-.9,1-1.4.2-.2.2-.6.5-.8.2-.2.5-.4.5-.8l.2-.2c.4-.5.9-.9,1.3-1.4.2-.7.7-1,1.1-1.5.3-.4.4-.9.8-1.2.3-.3.7-.6.9-1,.2-.2.2-.5.6-.6,0,0,.2,0,.2-.2.2-.6.7-1,1.1-1.5.2-.8.9-1.2,1.4-1.8.3-.3.5-.6.8-.9.3-.3.4-.6.7-1,.2-.3.5-.5.7-.8.3-.3.7-.5.8-.9.3-.7.8-1,1.2-1.6,0,0,.2-.2.2-.3,0-.5.4-.6.9-.6s.4,0,.7,0h.2c.2,0,.4,0,.6.2,0,0,.5,1,.5,1.1v.5h0s-.2,0,0,.2l.2-.2h.8c.3,0,.7.6.5.9h.2ZM45.5,86.7v.2h0v-.2h0ZM46,86.7v.2h0v-.2h0ZM46.5,86.7v.2h0v-.2h0ZM48,90.6s0,.2,0,.2h-.8v-.2c.1-.2.4,0,.5-.4h.2c0,0,.2.2,0,.3h0ZM48.9,86.1v.2h0v-.2h0ZM49.1,89.3s0,0,.2,0h.3c0-.2-.2-.2-.3-.2,0,0,0,0-.2,0ZM49.5,86.4v.2h0v-.2h0ZM50.6,86.5h0q0,0,0,0s0,0,0-.2c0-.2.2,0,.2,0h0ZM51.4,85.9h-.2c0,0-.3,0-.2-.2,0-.2.3,0,.4,0v.2ZM52.4,85.6h-.2c0,0-.3,0-.2-.2,0-.2.3,0,.4,0v.2ZM53,86.2s0,0,.2-.2c0,0,.2,0,.3.2,0,0-.2,0-.3,0,0,0,0,0-.2,0ZM53.2,85.6v.2h0v-.2h0ZM53.8,87h0v.2h-.3l.3-.2ZM53.8,86.9h1s.3,0,.4,0h0c0,0-.3,0-.4,0h-1ZM57.4,85.7c0,0,0,.3,0,.3h0c0-.3-.3-.2-.4-.2s-.3,0-.3,0c0-.2.2-.3.3-.4,0,0,0,0,.2.2,0,.2.5,0,.5.3h-.1ZM72.7,46.6v-.2h0v.2h0Z"/>
    <path class="st1" d="M95.8,76.6c-.3.2-.2.5-.2.8h0s-.2,0-.2,0c0-.2,0-.5-.3-.7l-.2-.2s0,0,0,.2v.8h-.2v-.6q0-.2-.2-.3h-.2c-.4.2-.4.6-.3.9,0,0,0,0,.2,0,.2,0,.3,0,.4,0h0c0,0,.2,0,0,0,0,0,0-.2,0,0q0,.3,0,.4s.3.2,0,.3c-.2,0-.4.2-.5.3-.2.2-.4.6-.8.6s-.3.5-.7.5c0,0-.2,0-.2.2-.2.4-.8.4-1,.8-.2.3-.5.5-.8.6s-.6.3-.8.6c0,0-.2.4-.4.4-.5,0-.5.5-.8.6-.3,0-.4.3-.6.5s-.4,0-.6.3c0,.3-.5.3-.7.5s-.4.4-.7.5c-.3,0-.3.5-.7.5s-.3.5-.7.6c-.3,0-.4.3-.7.4-.3,0-.3.5-.7.6-.2,0-.4.4-.6.5,0,0-.3,0-.4,0,0,0-.2.2-.3.2s-.2.2-.3.2c-.3,0-.5.2-.6.4,0,0-.2.3-.3.2-.4-.2-.6.4-1,.3,0,.3-.5.3-.8.5s-.6.4-.9.5c-.5,0-.9.4-1.4.3h-1.1q0,0,0,.2h-.7c-.3-.3-.8-.5-1-.9-.2-.5-.3-.9-.2-1.6,0-.2-.3-.3-.3-.5v-.5c0-.4,0-.6.2-1,0-.3-.2-.7.2-1-.2-.4.3-.8.2-1.2,0-.2.2-.3.2-.4,0-.7.6-1.3.8-2,.3-.2.2-.7.5-.9.2,0,.2-.3.2-.5v-.4c.2-.2.4-.3.4-.6s.4-.5.5-.8c0-.3.4-.4.3-.7.4-.3.4-.7.7-1.1.2-.3.4-.7.6-1,.2-.2,0-.6.4-.8.3-.2.5-.5.6-.9,0-.3.5-.4.4-.8h0c.3-.5.7-.8.9-1.2.2-.5.6-.8.9-1.1.2-.3.4-.6.5-.9s.3-.5.4-.8.2-.7.6-1c.3-.2-.2.3,0,0s.4-.4.3-.9c.2-.2.6-.4.8-.6.2-.2.2-.5.3-.7.5-.5.9-1,1.4-1.5,0-.7.8-1,1.2-1.6.2-.2.4-.3.7-.4.5,0,.9-.9,1.2-.5.2.2.4.3.7.3s.3-.2.6-.2.3,0,.5.2c.4.2.6.8,1.2.8.2.2.3.5.5.7,0,0,0,.2-.2.3-.2.2-.8,1-.8,1.1,0,.2-.2.4-.3.5-.2.2-.4.4-.5.6-.2.3-.2.7-.5.9-.2.2-.4.4-.5.7,0,.3-.5.5-.7.8,0,.4-.3.5-.4.8-.2.2-.5.5-.5.7,0,.4-.4.6-.6.8-.2.2-.4.4-.5.8,0,.2-.3.3-.4.5-.2.2-.4.4-.5.6,0,.3-.2.5-.3.7-.2.2-.4.4-.5.6-.2.2-.2.6-.4.8-.3.2-.4.5-.5.9,0,.3-.4.4-.4.8s-.4.4-.5.8c0,.2-.4.4-.5.6,0,.2,0,.4-.3.5-.2.2,0,.5-.3.7-.3.3-.5.7-.6,1.1,0,.4-.5.5-.5.9s-.3.7-.5,1c0,.3-.3.6-.4.9-.2.4-.3.8-.6,1.2v.2c0,0,0,0,.2,0,.4-.3,0-1.1.4-1.5s.9-.5,1.3-.8c0,.2,0,.3.3.2,0,0,0,.2,0,.2s.2,0,.2-.2h.2c0,0,.2,0,.2-.2h-.4c0,0,0-.2,0,0,0,0-.2,0-.2.2h-.3c0-.2,0-.3-.3-.2h0c.4-.4.9-.5,1.2-.9h.4c0,.3,0,.5.2.5h.7c.3,0,.2.2.2.4h0c0,0-.3,0-.4,0s-.2,0-.2.3h-.4c0,0-.2,0-.2.3h0s-.2.2,0,.2v-.2h.5c0,0,.2,0,.2-.3,0,0,.2,0,.3,0,.2,0,.2,0,.2,0v-.4h.6c.3,0,.3-.2.2-.5,0,0-.2-.2-.2-.3s0-.3.2-.3h.4c0,.3,0,.6.2.6s.3,0,.4-.3c.3-.4.9-.5,1.1-.9.5,0,.6-.7,1.1-.6,0-.2,0-.4.2-.5.2-.2.5,0,.7-.2s.3-.4.6-.5c.2,0,.4-.4.6-.6s0-.5.3-.5.3-.2.4-.2c.3,0,.4-.3.7-.4,0,0,.3,0,.3-.2,0-.6.6-.6.8-.9.3-.3.4-.7.9-.7.2-.3.6-.5.9-.7,0,0,.3,0,.5,0h0s0,0,.2,0v-.2h0c0-.3,0-.4.4-.6,0,0,.3,0,.3,0-.2.2-.2.3,0,.5,0,0-.2.3-.2.5s0,.2-.3.2c-.3,0-.3.3,0,.5.2,0,.3.3.6.3s.3.3.2.4l-.2,1.1ZM75.5,90.3s0,0,.2,0c.2.2,0,0-.2,0ZM81.8,82.4h.2v.2h0l-.2-.2ZM82.7,83.6h0c0,0-.4,0-.5,0h0c0,0,.4,0,.5,0ZM82.7,82.3c0,0,.2,0,.4,0,0,0,0,0,.2,0h-.2c0,0-.2,0-.3,0h0ZM82.9,81.3c0-.3.2-.5.3-.5.4,0,.6-.4.8-.6.2-.2.2-.3.4-.2,0,0,.2.2.3.2,0,0,0,.2,0,.2l.2.2s0,0-.2,0h-.3c-.3,0-.5.2-.5.6,0,.6,0,0,0,0s0,0-.2,0c-.3-.3-.6,0-.9,0ZM83,83h0ZM85.7,79.8c-.4,0-.4.4-.8.3,0,0-.2,0,0,0v-.4c0,0,.2-.2.3-.3.2,0,.5.2.7.2h0s0,0,0,0v.3ZM85.5,81.2v.2h0s0,0,0-.2h0c0,0,0,0,0,0ZM85.6,79.3h0v-.2h0v.2h0ZM85.6,80.5s0,0,.2,0h.2c0,0,0,.2,0,0h-.3s0,0-.2,0h.2ZM86.2,80.7h0q0,0,0,0h0c0,0,0,0-.2,0h0ZM87.2,79.8s0,0-.2,0c-.2,0,0-.2,0-.2h0c0,0,0,0,0,0ZM87.2,79.6l.2-.2h.3c0,0,0,.2-.2.2,0,0-.3,0-.3,0h0ZM88.2,79h-.2.2ZM97.2,57.7c-.2.2,0,.4-.2.6-.2.2,0,.5-.2.6s-.4,0-.5.3c-.5,0-.8.5-1.4.4-.2,0-.3,0-.5.2-.3.2-.7.2-1,0,0,0-.2-.2-.4-.2-.3,0-.7,0-1-.2h-.4q-.6,0-.8,0c0,0-.2-.2-.3-.3-.3-.2-.3-.4-.3-.7v-.2c-.5,0-.6,0-.6-.4v-1.1c0-.2,0-.3.2-.5,0,0,.3-.2.3-.3,0-.5.3-.5.6-.5s.5,0,.7-.4c0,0,.2-.2.3-.2h.7c.2,0,.3-.2.4-.3.3,0,.7,0,1-.3.3,0,.6,0,.8-.3,0,0,.3,0,.5,0s.2,0,.5,0c0,0,0-.2.3,0,.2,0,.4.2.6.2,0,.4.4.5.5.7,0,0,0,.2,0,.4v.8c0,.2,0,.3.2.4,0,0,0,.3,0,.4,0,0,0,.2,0,.3.2,0,.2.3,0,.4h0ZM91.4,76.4h-.2.2ZM92,75.9v-.2h0s0,0,0,.2h0c0,0,0,0,0,0ZM93.3,75c0,0-.2-.4,0-.4s.2,0,.2.2v.2h-.2ZM94.3,74.1h0c0,0,.3-.2.5,0h0c0,0-.3.2-.5,0ZM95,74.7h0,0ZM96.2,74.3h-.2c0-.3.2,0,.2,0h0ZM96.5,74.4h0s0,0-.2,0h0q0,0,0,0h0v.2ZM96.5,72.7s0,0,0,.2h0c0,0,0,0,0,0h0ZM97.4,71.6v.2h0v-.2h0ZM97.8,71h0c0,0-.2-.4,0-.4h0c0,0,.2.4,0,.4Z"/>
    <path class="st1" d="M113.5,62.7v.4c0,0,0,.2.3.2,0,.2,0,.3-.2.3-.3,0-.4.2-.5.3h.6s0-.3.3,0v.3c-.4.5-.5,1.2-1.1,1.6,0,0-.2.4-.3.5,0,.2-.4.2-.4.5v.2c-.6.4-.7,1.1-1.3,1.6-.3.2-.2.6-.5.8-.2,0-.4.4-.5.7,0,.3-.5.5-.7.7,0,.5-.6.6-.7,1s-.4.6-.7.9c-.2.2-.2.6-.5.8-.3.2-.6.5-.7.9,0,.3-.4.5-.7.8,0,.6-.8.8-.9,1.4,0,.2-.5,0-.4.4-.2.2-.3.4-.5.5-.2.2-.2.5-.4.6-.6,0-.3.5-.6.6-.3.2-.5.5-.7.7s0,.4-.3.5c-.2.2-.6,0-.6.4s-.2.4-.3.5c-.3.3-.7.6-.8,1.1l-.2.2c-.2,0-.5.2-.6.5,0,.2-.3.4-.5.5-.2.2,0,.5-.4.6-.2,0-.4.5-.7.5-.2.2-.2.5-.5.7-1,.9-1.9,1.9-2.9,2.9s-.5.3-.7.5l-.6.6c-.4,0-.5.3-.7.5s-.5,0-.7.2c0,.2-.3.2-.5,0-.3,0-.4.3-.7.3h-.6c-.3,0-.5-.4-.9-.3,0,0-.2-.2-.4-.3-.2-.2-.4-.4-.7-.5-.3,0-.5-.4-.4-.7,0-.2,0-.4-.2-.6s0-.2,0-.4c.2-.2,0-.4,0-.6s-.4-.4,0-.6v-1.6c.5-.3,0-.9.4-1.1.3-.3,0-.8.4-1,0-.4.3-.6.2-.9,0-.4.4-.6.3-.9v-.2c.3-.2,0-.6.5-.7,0-.3.3-.4.3-.7s.2-.6.3-.8c.6-1.3,1.3-2.6,1.9-3.9,0-.2.2-.4.3-.5,0-.2.3-.3.4-.5.3-.7.7-1.4,1-2,.2-.4.3-.8.7-1.2s.2-.4.3-.6c.2-.3.3-.6.5-1,0-.3.4-.5.6-.8h0c.3-.8.6-1.4,1-2v-.2h0c-.3-.4-.3-.8,0-1.1,0-.4.4-.6.3-.9.2-.3.3-.7.6-.9.4-.4.8-.8,1.2-1.2,0-.5.5-.7.8-1.1.2-.2.5,0,.6-.4h.4c.3,0,.5,0,.7.2.3.4.7.7,1.1,1.1.3.3.6.7,1.1.8.3,0,.4.5.2.9h0c-.4.9-.9,1.9-1.4,2.8h0c-.7.7-.8,1.8-1.5,2.5,0,.3-.2.6-.4.9,0,.3-.5.4-.4.7-.2,0-.3.3-.2.6,0,0,0,.3,0,.3-.3.3-.5.7-.6,1.2-.3.2-.3.6-.5.8-.4.4-.5.9-.8,1.4-.6,1.2-1.3,2.4-1.8,3.7,0,.3-.5.4-.6.8,0,.5-.4.9-.7,1.3-.2.2,0,.5-.2.7s-.2.3-.2.6h0s-.2,0,0,.2l.2-.2h0c.4,0,.5-.5.8-.7.2-.2.6-.4.6-.8l.2-.2.6-.6.7-.7c.3-.2.2-.5.4-.7.6-.5,1-1,1.6-1.5.2-.7.8-1.1,1.3-1.5.3-.3.3-.8.7-1,.3-.2.7-.5.8-.8.2-.5.5-.8.9-1.1.3-.3.3-.7.6-.9.3-.2.6-.5.7-.9,0-.3.5-.6.8-.9,0-.5.6-.6.7-1s.4-.6.7-.9c.2-.3.4-.7.7-1,.3-.2.6-.5.8-.8.2-.3.3-.7.6-.9h0c0-.6.2-.8.6-.7,0,0,0-.2,0-.3s0-.2,0-.2c.5,0,.7-.3.6-.8,0-.3,0-.5.3-.7s.4-.5.8-.6h.2q0,0,0-.1h0c0-.3.2-.5.2-.8s.2-.2.3-.2.2,0,0-.2c0,0,0-.2,0-.2.4-.4.7-.7,1.1-1.1h.3v.2c-.3.2-.3.6-.6.8-.3.2-.3.6-.5.8v.2h.3c0-.4.4-.6.7-.9h0s0,0,0,.2c0,.2,0,.5-.2.6-.4.2-.3.6-.5.8v.2h.2c0,0,0-.2.2-.3,0,0,0-.2.3-.2v.2q.2,0,.2-.2h.2s0-.2.3-.2v.4c-.3.2-.2.5-.4.7-.3.3-.4.7-.6,1h0c0,.2,0,.2.2,0,.3-.2.5-.6.8-.7v.5h-.2q0,.2.2.2h-.2ZM94,81.2h0ZM106.2,69.7h-.5c.2,0,.3,0,.4,0h0ZM110.8,63.6c0,0-.2,0-.3,0-.3,0-.4,0-.6,0,0,.2,0,.5-.4.6-.2,0-.5.3-.5.6s-.3.4-.4.6c-.3.3-.5.7-.6,1-.3,0-.4.3-.5.4,0,.3-.3.4-.3.6-.5,0-.4.6-.8.9,0,0,0,0,0,.2,0,0,0,0,0,.2h-.4c-.4,0-.5.2-.2.5,0,.2.2.3.2.6h0c.2,0,.3-.2.4-.3,0-.2.2-.4.3-.5,0-.2.4-.2.4-.5s.4-.2.4-.3c0-.5.5-.7.8-1.1,0-.3.2-.4.4-.6.2-.2.4-.4.5-.7,0-.2.4-.4.5-.6.3-.3.4-.7.7-1v-.2c0,0,.2-.2.2-.3h.1ZM106.2,69.7h0c0,0,0,0,0,0ZM107.3,67.4h0c0,0,0,0-.2,0h0q0,0,0,0h0ZM108.1,66.3h0c0,0,0,0-.2,0h0c0-.2,0,0,0,0h0ZM109.9,62v.2h0v-.2h0ZM110.4,63.9h-.2.2ZM110.7,60.9h0,0ZM112.4,61.7c0,0-.4,0-.4,0h0c0,0,.4,0,.4,0h0ZM112.7,63.5h0s-.2,0,0,.2v-.2h0ZM112.7,63.5s0,0,0-.2c0,0,0,0,0,0h0ZM113,60.6h-.3c0,0,0-.2.2-.2v.2h.1ZM112.9,63.3l-.2.2h0v-.2h.2ZM113.5,59.4h0s0,0,0,.2v.8h0c0,0-.2,0,0,0v-.2c-.3-.2-.2-.4,0-.6h0ZM115.3,60.7c-.3,0,0,.6-.5.7-.4,0-.5.3-.6.7,0,.4-.3.6-.8.6v-.3q.2,0,.3-.2c0-.2,0-.3-.3-.3,0-.3.3-.4.3-.7h.2v.2q.2,0,.2-.2c.3,0,.4-.2.5-.5,0,0,0-.3.2-.3s.2.2.4.3h.1ZM113.9,63h0s0,0,0,.2h0q0,0,0-.2h0ZM114.3,61.1h-.3c0,0,0-.2.2-.2v.2h.1ZM115,62.5c-.2.2-.4.4-.6.6h0v-.2c.2,0,.2-.4.4-.6h.3c0,0,0,.3,0,.3h-.1Z"/>
    <path class="st1" d="M136.3,73.2h0c0,.2,0,0-.2,0-.4-.3-.4-.2-.6,0-.3.2-.1.6-.4.8.6.6-.3.3-.3.6h0c-.5,0-.8.2-1.1.6-.1.2-.3.3-.5.3s0,.5-.3.5-.4.2-.5.3c-.2.2,0,.4-.3.6-.1,0-.2.2-.4,0h0c0,0-.1,0-.1,0s0,.2.1.4c.2.4,0,.8-.5.8s-.2,0-.2-.3h.2q0-.2-.2-.2v-.2q-.2,0-.2.2h-.2q0,.2.2.2c.1.4-.2.5-.3.8,0,0,0,.3-.2.2v-.2c0-.3-.3-.4-.4-.2-.1,0-.5.3-.1.6v.2h-.6l-.5.4c0,0,.1.2.2.3,0,0,.1,0,.2.2.1,0,.1.2,0,.2-.2,0-.4,0-.5.3,0,0-.1,0-.2,0,0-.2,0-.6-.3-.2-.2.2-.3,0-.5,0s-.2,0-.2.2h.2c.5,0,.6,0,.5.3,0,.3-.3.2-.5.2h0c0,0,0-.3-.2,0,0,0,0,0,.2.2h0c0,.2.2.5,0,.5-.5,0-.7.5-1,.8s-.2,0-.3,0h-.2c0,.2,0,.3-.3.5-.4.2-.8.4-1.1.8-.2.2-.3.5-.6.5s-.4.2-.5.4c-.2.3-.5.2-.6.4,0,.2-.2,0-.3,0,0,0-.2,0-.2,0,0,.4-.2.7-.6.8-.4,0-.5.6-.9.6-.3.3-.6.4-.9.7-.3.3-.8.4-1.2.7-.4.3-.9.4-1.3.7-.3.3-.7,0-.9.4-.3,0-.5.4-.9.4s-.3.2-.5.3c-.2,0-.4,0-.6.2h0c-.3,0-.7,0-.9,0-.2.2-.5.2-.7.2h-2c-.3,0-.5,0-.7.3h-.2c-.2,0-.3-.4-.5,0-.5,0-1.1.3-1.6-.2h-.2c-.3.2-.5-.3-.8-.3s-.4-.4-.5-.7c0,0-.2-.3-.4-.4-.3,0-.4,0-.4-.4s-.2-.2-.2-.3c0-.3,0-.6-.3-.9s0-.4,0-.7v-3.1c0-.4-.2-.8,0-1.1s0-.6,0-.9h0c.3-.4.4-.8.5-1.1,0-.4.3-.6.4-1,0-.2.2-.3.2-.5v-.4c.6-.6.8-1.5,1.2-2.2,0-.2.2-.4.2-.6s.2-.3.3-.4c.3-.2.2-.6.4-.8,0,0,0-.4.2-.4.3-.2.3-.6.5-.9.2-.2.5-.4.6-.7,0-.4.4-.5.5-.8,0-.4.3-.5.5-.8.2-.2.2-.5.4-.8,0-.2.2-.3.3-.4.2-.4.7-.5.8-1.1,0,0,0-.2.2,0,.6,0,.9-.4,1.1-.8s.4-.6.6-.8c.5,0,.7-.6,1.1-.9.3-.2.5-.5.7-.8.3-.2.4-.5.8-.7.3,0,.5-.5.8-.7s.5-.3.7-.5.3-.4.6-.5c.3,0,.4-.4.7-.6,0,0,0-.2.2-.2.3,0,.4-.3.7-.3s.4-.4.6-.5c.2,0,.4,0,.5-.3.3,0,.4-.2.7-.3.5,0,.9-.6,1.5-.6,0-.2.3-.2.6-.2h2.9c.2.4.6,0,.8.3.1,0,.3.2.4.2,0,0,.2.2.3.3.2.2.4.4.6.6s0,.3,0,.4c0,.2,0,.3.2.5.2.4.4.8.5,1.2.2.4,0,.9,0,1.4s0,.7.2.9v.3c-.4.4-.2.8-.3,1.3v.2c-.3.2,0,.6-.3.9-.2.3-.3.6-.4.9,0,0,0,.2-.1.2-.4.2-.4.8-.7,1.1-.3.3-.4.8-.7,1.1-.3.3-.6.6-.9,1-.3.3-.6.8-.9,1s-.8.6-1.2,1c-.2.2-.5,0-.6.4,0,.2-.3.4-.6.4-.2.3-.7.3-.9.7-.4,0-.6.5-1,.4-.2,0-.2,0-.3.2-.3,0-.6.5-1,.4-.3.2-.6.3-.9.3s-.7.3-1.1.3h-1c-.4,0-.7.3-1.1.3h-2.2c-.2,0-.3,0-.5-.2q-.3-.2-.4,0c-.4.3-.6.8-.8,1.3-.2.4-.3.7-.5,1-.4.4-.5,1-.7,1.5,0,.2-.4.4-.3.7,0,.3-.3.4-.3.7,0,.4-.4.6-.3,1,0,.3,0,.6-.2.9-.2.4.2.9.7.9h.3c.6.2,1-.3,1.6-.3.2-.3.5-.2.7-.3.2,0,.4-.3.7-.3s.4-.4.7-.3c0-.2.3-.3.5-.3.5-.4,1-.7,1.6-.9.2-.3.6-.2.7-.5s.4-.2.6-.4c.3-.3.9-.3,1.2-.7.3-.4.7-.4,1-.8.2-.2.5-.3.7-.5s.6-.2.7-.5.5,0,.6-.4c.2-.3.5-.3.7-.5s.4-.5.7-.5c.2-.3.6-.4.9-.7.3-.3.7-.3.9-.7.2-.3.6-.2.7-.5s.5-.2.7-.5c.2-.2.3-.4.6-.4s.3-.5.7-.5.3-.2.4-.3l.5-.5h.2c.4-.5,1-.7,1.4-1.1.4,0,.5-.7,1-.6.4-.5,1-.6,1.4-1.2,0,0,.1-.2.2-.2.4,0,.5-.5.8-.5s.3-.3.5-.3h1s.1.3,0,.3c-.1.2-.2.4-.5.4s-.2.2,0,.4v.2c-.2.2-.2.6,0,.7.2.2.2.5.2.8,0,0,0,0,0,0h.2c-.1-.4.4-.5.3-.9.3,0,.5-.3.8-.4v.4c-.1.2-.5.4.1.4s.2.2.2.3h-.9ZM106.9,89.2h-.2.2ZM107.8,89.2v-.2h0v.2h0ZM116.2,72.4c.2.2.4.2.5,0,0,0,.2,0,.3,0,.4,0,.6-.5,1.1-.3l.2-.2c.3,0,.6-.2.9-.4.3-.2.6-.5.9-.7.2,0,.5,0,.6-.4s.5-.2.6-.4c1-1.1,2-2.2,3-3.2,0-.4.5-.6.4-1.1v-.3q0-.3-.3-.2c-.5.2-.9.6-1.4.7-.3,0-.4.5-.7.6-.2,0-.4.4-.6.5-.3,0-.5.3-.7.5-.2.3-.5.3-.7.5-.3.3-.6.5-.8.9-.2.4-.7.4-.9.7-.7.8-1.5,1.6-2.3,2.5,0,0-.2.3,0,.5h0ZM124,83.6v-.2h0v.2h0ZM124.6,82.9h-.4v.2h0c0,0,.2,0,.4-.2h0ZM124.1,81.4h0v-.2h0v.2ZM124.6,82.9c0,0,.2-.3.4-.6l-.4.4h0v.2ZM125.1,82.4l-.4.4h0c.3,0,.5-.2.4-.4ZM126.6,81.5c0-.2,0-.3-.2-.2,0,0,0,.4,0,.5h0v-.2h.2ZM127.2,78.6c0-.2-.2-.2-.3-.2,0,0,0,0-.2,0,0,0,0,0,.2,0h.3ZM126.9,79.1h-.2.2ZM127.1,81.5h0ZM128.7,78c0-.2-.2-.2-.3-.2,0,0-.1,0-.2,0,0,0,.1,0,.2,0h.3ZM129.2,79.9v.2h0v-.2h0ZM130.8,77.9v.3h-.3v-.3h.3ZM132.8,76.6v.2h0v-.2h0ZM133.4,76.2h0c0,0-.1.2-.1.2-.2,0,0-.2,0-.2h.1ZM133.6,76s0,0-.1.2h-.1q0,0,.1-.2h.1ZM134.2,73.9v-.2h0c-.1,0-.1.4,0,.5.1,0,.2,0,.2-.2h-.2ZM134.6,75.1h0v.2h0v-.2ZM137,70v.3h-.5c-.1.2-.4.2-.6.2s-.3,0-.3-.2c0-.4-.1-.7-.4-.9v-.2h.6q0,0,0,0h0c0-.4.3-.6.5-.8h.3c.1.2.1.4.3.6.1.2-.3.3-.2.5,0,0,0,.2-.2.2h-.1v.2h.6v.2ZM135.9,69.3h-.1.1ZM136.5,71.8c0,0-.1.2-.2.2,0,0-.3,0-.2,0,0,0,.1,0,.2,0h.1s.2,0,.2,0h-.1ZM137.2,70.3s0,0,.1.2h0s-.1,0-.2,0h0q0,0,.1,0h0ZM137.3,69.8c0,.2,0,.3-.3.3,0-.2,0-.3.3-.3ZM137,68.2h.2-.2ZM137.5,69.7h0c-.1,0-.2,0-.1,0v-.4h0c.1,0,.1.3,0,.4h.1ZM138.1,68.4h0c0,0-.1.2-.1.2-.2,0,0-.2,0-.2h.1ZM138.2,68.4h0c.1-.2.3-.4.4-.5,0,0,.1,0,.1,0,.1.3,0,.4-.4.4h-.1Z"/>
    <path class="st1" d="M169.2,46.7c-.2.2-.4.3-.4.6s-.5.4-.5.7-.4.4-.3.7c-.2.2-.4.5-.6.8-.1.3-.4.5-.5.8s-.4.4-.5.7c0,.3-.4.5-.5.8,0,.3-.5.4-.4.7-.4.3-.5,1-1,1.3-.3.2-.2.6-.5.7-.4.2-.3.6-.5.8s-.5.4-.6.8c0,.3-.6.4-.5.8-.2.2-.6.5-.7.8-.1.3-.3.6-.6.8-.2.2-.2.4-.4.6-.2.2-.4.5-.6.7-.2.2-.3.4-.4.6h0c-.4.4-.9.8-1.1,1.2-.2.5-.7.8-1,1.1-.2.3-.3.6-.5.8s-.5.4-.6.8c0,.3-.5.4-.5.8s-.4.4-.4.6c0,.3-.5.4-.5.7s-.2.5-.4.6c-.2.2-.1.6-.4.7-.3,0-.2.5-.4.6-.2.2-.1.5-.4.6-.3,0-.2.5-.4.6-.3.2-.4.5-.6.8-.1.2,0,.5-.3.6s-.2.5-.4.6c-.2.2,0,.4-.3.6-.2,0,0,.4-.2.4-.2.2-.2.5-.3.6-.2.2-.5.3-.4.6-.3.5-.6,1.1-.8,1.6-.3,0-.2.5-.4.6-.2.2-.1.5-.4.6-.3,0-.2.4-.4.6-.3.6-.5,1.2-.9,1.7,0,.5-.3.8-.4,1.2-.2.4-.4.9-.6,1.3-.2.4-.3.9-.6,1.2-.3.3,0,.8-.4,1,0,.4-.4.5-.3.9,0,0-.2.3-.2.4v.2c0,.2.3,0,.3,0,.2-.3.6-.2.8-.5.2-.2.3-.5.7-.5s.4-.4.7-.6c.2-.2.4-.5.7-.5,0,0,.1,0,.2-.2.5-.5.9-1.1,1.5-1.5.5-.4,1-.8,1.4-1.2l1.5-1.5c.6-.6,1.2-1.3,1.8-1.8.4-.4.5-.9,1-1.3.4-.4.8-.8,1.2-1.2,0,0,.1-.2.3-.2v.8q-.2,0-.3.3h-.1v.2s0,0,.1.2c0,0,.1,0,.1,0v-.3c.2,0,.3,0,.3-.3h.3c0,.2,0,.4.2.6.1,0,.1.2,0,.2-.2,0-.4,0-.5.3-.4.5-.9.9-1.4,1.4-.1,0,0,.3,0,.5h-.1s-.2,0,0,.2v-.2h.4v.2q.2,0,.2-.2c.4-.2.6-.5.9-.8.3-.3.6-.5.6-.9.3-.3.6-.8,1.2-.7,0,0,.1,0,0-.2-.4-.3-.2-.5,0-.7.2,0,.1,0,.3,0,0,.3.3.3.5.2l.3-.3c.2-.3.5-.2.7-.2h0s-.1,0-.2.2c-.3.4-.8.5-.8,1.1-.3.3-.6.6-.9.9-.1,0-.2.4-.3.5,0,0-.3.2-.3.4v.4c-.2,0-.3,0-.3.3-.2,0-.3,0-.3.3-.1,0-.2,0-.3.2v.4h-.1c-.1,0-.2-.2-.3-.2-.1.2-.4.2-.4.5v.2h.2c.2,0,.3-.2.5-.4.1,0,.2,0,.3-.3s0-.2,0-.4c.2,0,.3,0,.3-.3.2,0,.3,0,.3-.3h.2c.4-.3.4-.2.6.2,0,0,.1.2.3,0h.2c0,0,.1.3,0,.3,0,0-.2.3-.4.4-1.5,1.5-3,3.1-4.6,4.6-.7.7-1.4,1.4-2.1,2.1-.3.3-.6.6-.9.9-.3.4-.7.4-1,.7-.3.3-.6.7-.9.9-.2.2-.5.2-.7.5-.2.2-.4.4-.7.5-.3,0-.4.4-.7.6-.2,0-.4.3-.6.3-.5.2-.8.5-1.3.6-.3.4-.6.2-1,.2-.2-.4-.8,0-1.1-.5-.4,0-.6-.4-1.1-.3-.3-.2-.5-.4-.8-.5-.4,0-.5-.6-1-.6s-.2-.3-.4-.2c-.2,0-.3-.2-.4-.2-.2,0-.4,0-.4-.2v-1c0-.2-.2-.3-.3-.4.5-.5.1-1.1.3-1.6.3-.2.1-.6.3-.8.4-.3,0-.8.3-1.1.2-.3.2-.6.5-.9-.1-.3.3-.5.2-.8,0-.4.3-.6.3-.9.3,0,.2-.6.4-.7v-.2h0v-.2h0s-.1,0-.2.2c-.2.3-.6.5-.7.9-.1.4-.6.4-.8.7-.2.3-.5.6-.8.8-.3.3-.5.6-.8.8l-1,1c-.3.3-.5.6-.9.8-.4.2-.6.7-1.1.9-.5.2-.8.7-1.3,1-.2.2-.5,0-.6.4-.1.2-.3.2-.5.3-.2,0-.4.4-.6.5-.2,0-.3.3-.5.3-.3,0-.4.3-.7.3s-.3.3-.5.2c-.4,0-.9.2-1.2-.2h-.2c-.5,0-.9-.2-1.4-.5-.3-.2-.6-.2-.9-.4-.3-.2-.5-.4-.8-.5-.2,0-.3-.2-.3-.5v-2.2c.2-.3,0-.5.2-.7.4-.2,0-.7.4-.9.3-.2,0-.6.2-.8.2-.3.3-.6.4-.9.5-.9.9-2,1.5-2.9.1-.2.2-.5.4-.6s.1-.4.3-.5c.3-.4.3-.8.6-1.2.3-.3.4-.7.6-1.1.1-.3.6-.4.5-.8.3-.2.3-.7.6-.9.2-.2.3-.6.6-.8.2-.2.1-.5.4-.6.3,0,.2-.4.4-.6s.4-.3.4-.6.3-.3.4-.5c.2-.2,0-.4.3-.5.5-.3.6-1,1.1-1.4,0,0,0-.3.1-.3.3-.4.7-.7.9-1.1s.5-.7.8-1,.3-.7.6-.9c.3-.2.7-.5.8-.8.2-.5.6-.8.9-1.2.4-.4.7-.7,1.1-1.1s.8-.7,1.1-1.1c.2-.2.5,0,.6-.4.1-.2.3-.3.4-.5.2-.2.2,0,.4,0s.2,0,.3-.2c.2,0,0-.5.3-.5s.5-.4.8-.6c.3,0,.7-.3,1-.5h.1c.4,0,.8-.2,1.2-.3h1.4c.3,0,.6.2.9.4.4.3.8.7,1.1,1.1.2.2.3.6.4.8.3.5.4,1.2,1,1.6.1,0,.2.3.4,0s.6-.5.7-.9c.1-.4.7-.5.6-.9.2-.2.5-.4.6-.8,0-.3.4-.4.5-.7,0-.3.6-.4.5-.8.5-.4.7-.9,1.1-1.4.2-.2.2-.5.4-.7.3-.2.5-.4.6-.8,0-.3.4-.4.5-.7,0-.2.3-.4.5-.6.2-.2.2-.4.4-.6.2-.3.6-.4.6-.8s.3-.5.5-.7.2-.5.4-.6c.3-.2.4-.6.5-.8.2-.2.4-.5.6-.7.3-.3.3-.7.6-.9s.3-.6.5-.8c.2-.3.6-.5.7-.9,0-.2.3-.4.5-.6.2-.2.5-.5.7-.8,0-.5.5-.3.7-.6.2-.7.9-1.1,1.4-1.6.2-.3.6-.3.9,0,.4.3.6.8,1.2.9.3.3.7.7,1,1,.2.2.3.5.5.7,0,0,.2,0,0,.3l-.2,1.1ZM147.1,67.5v-1.3c0-.3-.4-.5-.3-.8.1-.4-.4-.7-.3-1.2,0,0-.2,0-.3,0h-.4c-.2.3-.5.2-.7.4-.5.6-1.2,1.2-1.7,1.8-.6.6-1.3,1.1-1.7,1.9-.1.3-.4.5-.7.7s-.4.6-.6.9c-.3.4-.8.6-.9,1.2-.5.3-.6.9-1,1.3-.2.2-.1.4-.3.5-.2.2-.4.4-.5.6,0,0-.2,0-.2.2,0,.4-.4.5-.5.7,0,.3-.3.5-.5.7s0,.4-.3.6c-.2,0-.4.2-.3.5-.3.5-.7.9-.8,1.5-.5.3-.5,1-.8,1.3-.4.4-.5.9-.8,1.4,0,0,0,.3-.2.4-.5.4-.5,1-.9,1.5,0,0,0,0,.1.2h.1s.2,0,.2,0c.5-.4.9-1,1.5-1.3s.6-.6.9-.9c.3-.3.5-.7,1-.8.4-.2.6-.6.9-.8.4-.4.7-.7,1.1-1.1.4-.4.7-.7,1.1-1.1.4-.4.8-.8,1.2-1.2.4-.4.7-.8,1.1-1.1.4-.3.5-.9.9-1.2.4-.3.7-.7,1.1-1.1.4-.4.7-.7,1.1-1.1.4-.4.8-.8,1.2-1.2.4-.3.4-.9.9-1.2.2,0,.2-.3.2-.6h0ZM148.7,87.2s.1,0,.2.2c0,0,.1,0,.2,0v-.2h0v-.2h-.4v.2h0ZM149.1,87h0ZM149.1,86.9c.2,0,.3,0,.3-.3.4,0,.7,0,.8-.5h.5l.7-.7c.5,0,.6-.4.9-.6.2-.2.5-.4.8-.9-.3,0-.6,0-.9-.2h-.3v.2h0c.2.3.3.4-.1.4s-.2,0-.2.2v.4c0,0-.2,0-.3,0h-.2c-.1.2-.4.2-.3.5,0,0,0,0-.1.2,0,0-.2-.2-.3-.2h-.1v-.3h0v-.2q.1,0,0,0v-.2s-.1,0-.1,0h0c-.1,0-.3,0-.4,0s-.2.2-.1.3c0,0,0,0,.1.2,0,0,.1,0,.2-.2h.2v.8c-.4,0-.7,0-.8.5q-.2,0-.3.3h0ZM150.1,85.1h0ZM150.5,83.5v-.2h.1-.1s-.2,0,0,.2ZM150.6,83.4h0ZM150.6,83.3c.2,0,.3,0,.3-.3.2,0,.3,0,.3-.3.1,0,.2,0,.3-.3h0v-.2q.1,0,0,0h0c0,0-.1,0-.1,0h0c-.2,0-.3,0-.3.4-.2,0-.3,0-.3.3q-.2,0-.3.3h.1ZM151.4,82.5h0c0,0,0,0,0,0ZM152,81.8v.2h0v-.2h0ZM153,83.7c0,0,.1-.3.2-.4h0v.3h-.2ZM153,83.8h.1c0-.2,0-.4-.2,0h0ZM153.3,82.4v-.2h.1-.1s-.2,0,0,.2ZM153.5,82.2c.4,0,.6-.3.9-.5.2-.2.1-.4.1-.5.1,0,.2,0,.3-.3h0v-.2q.1,0,0,0h0c0,0-.1,0-.1,0h0c-.2,0-.3,0-.3.4-.3,0-.4.3-.6.5-.2.2-.4.3-.4.6h.1ZM154,83h-.1s-.2,0,0,.2l.2-.2h0ZM154,83s0,0,.1-.2c0,0-.1,0-.1,0h0ZM154.2,82.8l-.2.2h0v-.2h.2ZM154.8,80.9h0c0,0,0,0,0,0ZM155.3,80.2s.1,0,.2,0c.2,0,.3,0,.3-.3v-.2h-.2s-.1,0-.2.2h0v.2ZM155.5,81.8v-.2h0v.2h0ZM155.8,78.6h0ZM156.1,79.5h0v-.2c0,0,0-.3-.2-.2-.1,0-.1.3,0,.4h.2ZM156.3,78.5h-.3c0,0,0-.2.2-.2v.2h.1ZM157.1,76h0ZM157.3,74.9c0-.2,0-.3.3-.3,0,.2,0,.3-.3.3ZM157.6,74.6c0-.3.2-.5.5-.5,0,.5,0,.6-.5.5ZM157.6,75.7c0-.3.4-.3.3-.6,0,0,.1-.2.1,0,.3,0,.4-.3.6-.3v.7c-.3,0-.6.4-1,.3h0ZM157.6,79.9h0ZM157.9,77.7h0v-.2h0v.2ZM158.1,74.1c0-.2,0-.3.3-.3,0,.2,0,.3-.3.3ZM158.1,77.1s.1,0,.2,0c.2,0,.3,0,.3-.3v-.2h-.2s-.1,0-.2.2h0v.2ZM158.4,73.8c0-.3.2-.5.5-.5,0,.5,0,.6-.5.5ZM158.9,74.6h-.3c0-.2,0-.3.3-.3v.3ZM158.7,79.2h.2-.2ZM159,73.3h-.1q0,0,.1-.2h0s0,0-.1.2h.1ZM159,74.6h.1c0,0-.1,0-.2,0h0q0,0,.1,0h0ZM159.1,74.3h-.2q0-.2.2-.3h0c.1-.2.2,0,.3,0,0,0,.1.2.2.3h-.5ZM160.1,77.7c-.2.2-.5.4-.5.7h0l-.3-.3c-.1,0-.1,0,0-.2.2-.2.4-.4.6-.5h.3v.2h-.1ZM159.6,72.6h-.1c-.2,0,0,0,0,0h.1ZM159.6,72.5h0q0,0,.1-.2h0s0,0-.1.2h-.1.1ZM159.8,73.6h.1c0,0-.1.2-.1.2-.2,0,0-.2,0-.2ZM160.2,73.4s-.1,0-.2.2h-.1v-.4c.4-.5.9-.9,1.4-1.4s.4,0,.6,0,.1,0,0,.2c-.3.2-.1.7-.6.6-.1,0-.3.2-.4.4-.2.3-.4.4-.7.5h0ZM160.4,73.7h.2-.2ZM161.1,74.9h-.1c.1-.2.3-.3.4-.5h0s.1,0,.2-.2h.1c0,.5-.3.7-.6.8h0ZM161,74.7l.6,1h.2-.2l-.6-1ZM162,73.8c0,.2,0,.3-.3.3,0-.2,0-.3.3-.3ZM162,73.8c0-.2,0-.3.3-.3,0,.2,0,.3-.3.3ZM165.9,71.4c-.2.4-.3.8-.6,1-.4.2-.4.7-.6.9-.2.2-.6.4-.6.8s-.2,0-.3,0q-.4,0-.6,0c-.3.3-.5.7-.6,1h-.3c-.1,0-.3,0-.2-.2.3-.2.2-.5.4-.7,1-1,1.9-1.9,2.9-2.9s.3,0,.5,0h0ZM162.3,73.5c0-.2,0-.3.3-.3,0,.2,0,.3-.3.3ZM162.5,73.3c0-.2,0-.3.3-.3,0,.2,0,.3-.3.3ZM162.6,75.4h.1c0,0-.1,0-.2,0h0q0,0,.1,0h0ZM162.8,73c0-.2,0-.3.3-.3,0,.2,0,.3-.3.3ZM163,72.8c0-.2,0-.3.3-.3,0,.2,0,.3-.3.3ZM163.3,72.5h0q0,0,.1-.2h0s0,0-.1.2h-.1.1ZM166.1,71.3s0,0-.1.2h-.1q0,0,.1-.2h.1ZM168.5,46.4v-.2h0c-.1,0-.1.4,0,.4s.2,0,.2-.2h-.2Z"/>
    <path class="st1" d="M235,49.1c-.3.2-.4.6-.8.6s-.2.2-.2.3c0,.3-.7.2-.6.7h-1.1s0,0,.1.2h.2-1.5c-.3.4-.8.2-1.2.3-.4,0-.7.3-1.1.3h-1c-.3,0-.6.4-.9.3-.3,0-.6,0-.8.2-.3,0-.6,0-.9,0,0,0-.2-.2-.3,0-.2.4-.6.5-1,.4-.5,0-.9.4-1.5.3-.3.4-.7.3-1.1.3s-.3,0-.5.2-.5.2-.7,0c0,0-.1-.2-.3,0-.1.2-.3.3-.5.4-.4-.2-.7.4-1.1.3-.3,0-.5.2-.8.3-.3,0-.6,0-.8.2h-1.1c-.2.4-.8,0-1,.5h-.1c-.3,0-.7,0-1,.2-.2.2-.6,0-.8.3-.3,0-.7.2-1,0h0c-.2.4-.6.3-.9.2-.3,0-.5,0-.7.3-.1.2-.4.2-.5.2-.5.2-.9.3-1.4.5-.3.2-.6.4-.9.3-.3,0-.4.2-.5.2-.2,0-.4,0-.6,0,0,0-.2.2-.3,0-.3,0-.5.2-.7.2h-.8c-.2,0-.3,0-.4.2-.2,0-.9.6-1.1.5-.3,0-.4,0-.4.3s-.1.2-.3.2h-.5q-.2,0-.2.2c0,.4-.3.6-.7.5-.3,0-.4.4-.7.3-.3,0-.4.2-.7.3s-.7.3-1,.5c-.4-.2-.6.2-.9.3-.3,0-.6.4-1,.5-1,.4-1.8,1-2.8,1.4h2.5c.2,0,.3-.2.4-.3h.4s.1,0,.2.2c.3-.4.8-.2,1.2-.2s.8-.2,1.1.2c.1,0,.3-.2.5-.2h1.3c.5,0,1.1.3,1.6-.2,0,0,.1,0,.2,0h.2v.2s-.3,0,0,.3c.1,0,.2.3.4.3h1.4c.1,0,.1,0,0-.2,0,0-.1,0-.1-.2s.2,0,.3,0h0s.2,0,.4-.2c.2,0,0-.2,0-.3-.1,0-.1,0,0-.2.2,0,.5,0,.7,0,0,.6.4.4.7.3v-.2h.2s.1-.2.3,0c.1.2.3.3.5.5.1,0,.1,0,0,.2-.5,0-.9.5-1.4.2,0,0-.1-.3-.3,0-.1,0-.1.3,0,.4.4.2.3.7.6.9.1,0,0,.3-.3.4,0,0-.2,0-.2,0v.3h.8c.3,0,.4.2.6.4v.2s-.2,0-.3,0c0,0-.1,0-.2,0,0,0-.1,0-.2,0,0,0,0,.4-.2.4s-.3,0-.4.2c-.1.2-.3,0-.5,0h0c0-.3.3-.4.2-.6h0c-.3.2-.5.4-.6.7h.4v.2s-.2,0-.2.3c-.2,0-.3,0-.3.3h-.1c-.2,0-.3,0-.4-.2,0-.2-.7-.6-.8-.6h-.2c-.2.2-.4.5-.7.5s-.1,0,0,.2h.9c.2,0,.4,0,.6,0,.2.2.4,0,.6,0,0,0,.1,0,.2-.2h0c.2,0,.3,0,.3-.3h.5c.2-.2.6,0,.7-.4.3,0,.5,0,.8-.2.2,0,.6,0,.9,0,0,.2,0,.3-.2.3-.4,0-.7.3-1.1.4h0c-.2,0-.3.3-.4.4-.2,0-.2.2.1.3h.2c0,0-.1.2-.2.2h-.5v-.2q-.2,0-.2.2h-.4c-.1,0-.2.2-.3.2-.3,0-.5,0-.8.3-.2,0-.5,0-.8,0-.6,0-1,.3-1.6.3h0c0,.2,0,0,0,0,.2,0,0,.6.4.6h.1s0,0,.1.2c-.2,0-.2.3-.3.5h-.2c-.3,0-.5,0-.7.3-.2.2-.3.3-.5,0,0,0-.2,0-.2,0,0,.2,0,.4-.2.4-.3,0-.6,0-.6.4l-.3.3c-.1,0-.2,0-.4,0,0,0-.2-.2-.3,0-.2.4-.7.3-.9.6-.3,0-.5.4-.9.3-.3,0-.4.2-.5.5v.2c-.4,0-.8.4-1.2.6-.3-.4-.4,0-.5,0v.4c-.6,0-.9.3-1.2.5-.5,0-.8.3-1.1.6-.3.3-.7.3-.9.6-.1.2-.2,0-.3,0h-.4c-.1.2-.8.9-1,.9-.3,0-.4.4-.7.3-.2.2-.4.4-.5.5-.3.3-.7.3-.9.6-.2.3-.5.5-.7.7s-.6.2-.7.5c-.1.3-.6.2-.7.5-.1.2-.3.5-.5.5-.4,0-.5.3-.7.5-.2.3-.6.3-.8.5s-.4.5-.6.6c-.3.2-.6.3-.8.6-.2.2-.4.4-.6.6-.4,0-.5.3-.7.5l-1.5,1.5h.5c.2-.3.6,0,.8-.3.3-.3.6-.2.8-.2.4,0,.7-.3,1.1-.3s.6-.4.9-.2c.2-.3.5-.3.8-.3s.6-.4,1.1-.3c.2-.4.6,0,.9-.4.3-.3.6,0,.9,0h.1c.2-.4.7,0,.9-.4.2-.3.5,0,.7-.2.2-.3.5-.2.7-.2s.3,0,.5-.2c.1,0,.3,0,.4-.2.1,0,.2-.2.3-.2.2,0,.5,0,.7,0,.2-.3.6,0,.8-.3s.6,0,.7-.2c.2-.3.6,0,.8-.3.3-.3.6-.2.8-.2s.2,0,.3-.2c.1,0,.2,0,.5,0h0c.2,0,.4,0,.2,0h.2-.3c-.1,0-.1-.2,0-.2.3-.2.7,0,1-.2.2-.3.7,0,.9-.4,0,0,.4,0,.6,0,.3-.3.3,0,.3.2h0c0,0,.1,0,.2,0,0,0,0-.4.2-.4s.3-.2.4-.2c.4,0,.7-.3,1-.3s.4-.3.7-.3h.6c.2-.2.4-.3.7-.2v.2c.3,0,.7.2.7-.4s.2-.3.4-.4h.8c.1,0,.1.2.1.3,0,0,0,0,.1.2,0,0,.1,0,.1-.2,0-.4.1-.2.4,0,.2,0,.5,0,.7,0,.1,0,.2,0,.3,0,.1.2.2,0,.3,0,0,0,.2,0,.2,0v.4h0c-.4,0-.8,0-1.1.2-.2-.2-.3-.2-.5,0s0,.3,0,.4v.2h-.4c-.4,0-.6.3-.9.3s-.1,0,0,.2.2.2.2.4h.2v-.4s.1,0,.2,0c0,0,0,.3.1.3.2,0,.4,0,.6,0,0,0,.1,0,.2-.2.1,0,.4,0,.4.2,0,.3.1.4.3,0h0c.2.3.4.2.7.2h.1c.1,0,0,0,0,.2-.2.2-.4.3-.5.6-.2.2-.4.3-.7.2-.4,0-.6.3-.9.3v.7c-.3,0-.4.3-.7.3h-.7c-.2.2-.5.2-.7.2h-.8c-.1,0-.4,0-.3.2h.3c-.4-.2-.7.3-1,.3-.2.4-.8,0-1,.5h-1c-.5,0-.9,0-.9,0,0,.5-.3.4-.6.4h-.1c-.4.3-.8.5-1.3.5-.2.4-.6,0-.8.3-.2.2-.5,0-.6.4-.2.2-.6,0-.8.3-.6,0-1.2.2-1.7.6-.2,0-.5,0-.7.2-.1,0-.4,0-.6,0-.3,0-.6.4-.9.3-.2.4-.7,0-.9.4-.2.3-.6,0-.8.3s-.7,0-.9.4h-.2c-.3,0-.6,0-.8.2-.1,0-.5,0-.7.2h-.2c-.3,0-.6,0-.8.2s-.6,0-.8.3h-.2c-.3,0-.6,0-.9.2-.3,0-.7,0-.9.3h-.8c-.3.3-.7.3-1.1.2-.4,0-.4.4-.8.3h-1.7c-.2,0-.3.3-.4.3-.3,0-.7,0-1-.2-.2-.2-.5,0-.7-.2s-.5,0-.6-.4c-.5,0-.7-.4-.9-.8v-.2c-.6-.4-.4-1-.5-1.5.4-.3.3-.7.2-1.1,0-.5.2-.9.5-1.2.2-.2.4-.4.3-.7,0,0,0-.2.2-.3.2-.2.4-.3.4-.6.3-.3.6-.5.8-1,.2-.4.6-.6.9-.9.3-.3.6-.6.9-.9,0,0,.1,0,.2,0,.3,0,.3,0,.4-.4,0,0,.2-.3.3-.4.2,0,.4,0,.5-.3.4-.4.7-.9,1.2-1.2.4-.3.8-.6,1.2-1,.2-.3.6-.3.8-.5s.4-.4.7-.5c.3,0,.5-.6.8-.7.4,0,.6-.4.9-.7h0c.3-.2.7-.3,1-.5s.5-.6.9-.7c.5-.6,1.5-.7,2-1.4.2-.2.5-.3.7-.4.2,0,.4-.2.5-.2.2,0,.3-.2.4-.3.2-.3.5-.2.8-.4.3-.2.7-.2.9-.5.3-.3.7-.3.9-.6.1-.3.5-.2.6-.4.2-.2.5,0,.7,0s.3,0,.3-.3.1-.2.2-.3c.2-.4.6,0,.8-.3.2-.2.3-.5.7-.4h.1c.5-.4,1.1-.7,1.7-1h-1.8c-.2.4-.4,0-.6,0h-1c-.4,0-.8,0-1.1,0-.2,0-.2.2-.4,0s-.5-.2-.7,0-.5.2-.7,0c-.2-.2-.4-.2-.7-.2h-1.4c-.6,0-1-.3-1.6-.3-.2-.3-.5-.2-.7-.2,0,0-.2,0-.2-.2-.2-.4-.7-.3-.9-.6-.1-.2-.2-.5-.4-.8v-.7c0-.4.4-.7.3-1.1v-.5c.2-.2.1-.5.4-.7.2-.2.5-.4.6-.7,0-.4.3-.5.5-.7s.4-.4.6-.6c.2-.2.4-.5.6-.5.4,0,.5-.3.7-.5.2,0,.5,0,.6-.4.1-.3.5-.2.6-.4.2-.2.5,0,.6-.4.1-.3.4-.3.6-.4.5-.2,1-.7,1.7-.7s.5-.2.7-.4c.2,0,.3-.4.6-.4.2-.3.4-.2.7-.3.2,0,.4-.3.7-.3s.4-.3.7-.3.5-.2.6-.3c.2-.2.4,0,.5-.3.2-.2.4-.2.6-.2,0,0,.1,0,.2,0,.3,0,.6-.4.9-.4s.6-.4.9-.3c.1,0,.2,0,.3-.2s.4,0,.5-.3c.2-.3.5,0,.7-.2s.4,0,.6-.2c.2,0,.4-.4.7-.3.3,0,.3-.2.5-.2.3,0,.5-.4.8-.3.3,0,.5-.3.8-.3s.4-.2.5-.2c.2,0,.4,0,.6-.2.2-.2.7,0,.9-.3.5,0,.8-.4,1.3-.3.3,0,.5-.4.9-.2.2-.4.7,0,.9-.4.2-.3.6,0,.8-.3s.7,0,.9-.4h.2c.3,0,.6,0,.9-.2.3,0,.7,0,.9-.3h.1c.3,0,.6,0,.8-.2.2-.2.5,0,.7,0,.3,0,.4-.4.7-.3.3,0,.5-.4.9-.3h.9c.1,0,.3,0,.3,0,.3-.4.7-.5,1.1-.4.3,0,.4-.2.7-.3h.6c.3-.3.7-.3,1.1-.2.4,0,.6-.3.9-.3s.6,0,.8-.2h.9c.3,0,.4-.3.7-.3h.4c.3,0,.7,0,1-.2h.5c.4,0,.8.2,1.1-.2h1.3c.4,0,.8.2,1.1-.3h.8s.1,0,.1.2c0,.2,0,.4.3.3.4,0,.5.2.8.4s.3.5.3.8,0,.4.5.4h.2c.1,0,.3-.3.3,0s.3.4.4.6c0,0,.1,0,0,.2l.4,1.9ZM191.8,74.1v-.2h0v.2h0ZM193.4,62.9v-.2h0v.2h0ZM195.2,70.2v-.2h0v.2h0ZM196.5,81.3h-.3.3ZM196.6,70h-.1s-.2,0,0,.2h.2c0,0,0-.2,0-.2ZM196.6,70s.1-.2.2-.3h-.1s-.2,0-.2,0h0c0,0,.1.2.1.2ZM196.8,84.6h.2c0,0-.4,0-.4,0s0,.2.2.2v-.2ZM197,69.9l-.4.2h.1c.1,0,.2,0,.2,0h0ZM198.4,84.5h.2-.2ZM201.2,69.1h.2-.2ZM202.6,67.6c0,0,.4,0,.4,0h0c0,0-.4,0-.4,0h0ZM203.4,78.9s.2,0,.2,0-.1.2-.2,0c0,0-.3,0-.2,0,0,0,.1,0,.2,0h.1-.1ZM203.5,62.5h0s0,0-.1.2h-.1q0,0,.1-.2h.1ZM203.3,64.9c0,0,0,.2.2,0,0,0,.1-.2.3,0,0,0,.2,0,.3,0,.2,0,.5,0,.5,0,0-.4.4-.4.3-.8,0,0,0-.3-.1-.3s-.1,0-.2.2c0,.2-.2.3-.4.2h0c-.2-.3-.5-.2-.7-.2,0,0,0,.1-.1.2h.3c0,.3-.2,0-.3.2,0,0-.1.2-.1.3v.2ZM203.9,81.2c.1,0,.2,0,.2-.2v-.2h0c-.1,0-.1.4,0,.4h-.2ZM203.8,79.8h.2-.2ZM204.9,54.4h-.1s-.2,0,0,.2l.2-.2h0ZM205,54.2s-.1,0-.1,0h0c0,0,0,0,.1,0ZM204.9,79.6h0v-.2h0v.2ZM205.1,54.2l-.2.2h0v-.2h.2ZM205.3,80.5h-.2.2ZM205.2,65.2v.2h0v-.2h0ZM205.9,67.7h0ZM206.3,66.9h0ZM206.3,66.9h0ZM206.7,68.2h.3c0,0,0,.2-.2.2v-.2h-.1ZM207.2,62.7h0c-.3,0-.4,0-.4-.3v-.2h0c.1,0,.2.2.3.3h0c0,0,0,.2,0,.2ZM207.1,77.8v.2h0v-.2h0ZM207.2,62.8l.4,1.5v.2h0v-.2h0l-.4-1.5ZM207.9,67.4h.1c0,0-.1,0-.2,0h0q0,0,.1,0h0ZM208,64.8h0c0,0-.1.2-.1.2-.2,0,0-.2,0-.2h.1ZM208,64.8h0q0,0,.1-.2h0s0,0-.1.2h-.1.1ZM208.3,64h-.2c.1,0,.2,0,.3,0,0,0,.1,0,.2,0,0,0-.1,0-.2,0h-.1ZM209.1,54.5h-.2.2ZM208.9,81.7v.2h0v-.2h0ZM209.1,63.3c-.1,0-.3,0-.2-.2,0,0,.3,0,.4,0h-.2v.2ZM209.3,66.5s0,0-.1.2h-.1q0,0,.1-.2h.1ZM209.6,81.5h0c0,0-.1.2-.2.2-.2,0,0-.2,0-.2h.2ZM209.7,55.2h0c-.1,0-.1.4,0,.4h0c.1,0,.1-.4,0-.4ZM210.1,81.3c0,0-.1.2-.2,0,0,0-.3,0-.2,0,0,0,.1,0,.2,0h.1s.2,0,.2,0h-.1Z"/>
    <path class="st1" d="M238.9,65.4c-.2.2-.3.5-.6.5-.5.2-.7.6-1.1.8-.3.3-.5.6-1,.8-.4.2-.7.6-1,.9s-.7.6-.9.9-.6.2-.7.4c-.2.3-.5.5-.7.7s-.4.4-.6.6c-.3.3-.7.3-.9.6-.2.3-.5.6-.8.8-.3.3-.6.5-.8.8-.3.3-.7.3-.9.6-.2.3-.6.6-.9.9-.3.3-.6.5-.8.8-.3.3-.7.3-.9.6s-.5.5-.7.7-.3.4-.3.7-.3.5-.3.8v.8c0,.4-.2.7-.2,1.1v1.2c-.4.2-.2.6-.2.9s0,.6-.2.8v.5c0,.6.2,1.2-.3,1.7v.9c0,0,.2.2.3.2.3,0,.5-.2.7-.4.3-.2.4-.6.8-.6s.5-.3.7-.6c.2-.3.6-.2.8-.5.2-.2.4-.4.6-.7.1-.2.5,0,.5-.4s.5-.2.7-.5c.1-.2.4-.4.5-.6.2-.2.4-.4.6-.6.2-.2.4-.4.6-.6s.4-.4.5-.6c0,0,0-.2.2-.3.1-.2.3-.3.5,0,.2.2.4.2.6,0,.2,0,.4,0,.4,0v.4s-.1,0-.2.2h0q-.2,0-.3.3c0,.2,0,.3-.3.3s-.4,0-.6.2c-.2.3-.5.6-.9.7-.2,0,0,.5-.3.5s-.2.3-.3.4c-.1.2-.2.4-.5.4s-.3,0-.3.2c0,.3-.2.3-.4.3s0,.4-.3.5c-.2,0-.3,0-.4.2,0,0-.3,0-.1.3h.3c.3-.3.5-.3.7,0,.2.2.4.3.7.3s.3.2.5.4c0,0,0,.2-.1.2-.2,0-.4,0-.4.2v.6c0,0-.1.2-.2,0,0,0-.2,0-.3,0s-.2,0-.2.3h-.1s-.2,0,0,.2l.2-.2h0c.3,0,.3,0,.2.3,0,0-.1.2-.2.3-.4.4-.8.8-1.2,1.2l-.7.7c-.2.2-.4.5-.6.6-.3.2-.3.6-.5.8-.3.2-.4.5-.9.4-.2,0-.5,0-.7,0s-.5,0-.6.2c-.5.4-1.1.2-1.6.2h-.1c-.2-.4-.7,0-.9-.4,0,0-.2,0-.3,0-.1,0-.3-.2-.4-.3-.2-.2-.4-.4-.6-.5-.2,0-.3-.3-.3-.5-.3,0-.2-.5-.4-.6-.3-.2,0-.7-.4-.9v-4.5c0,0,0-.3-.1-.3h-.5s-.1,0-.2.2c-.2.2-.4.4-.8.4s-.3.3-.5.3h-.5c-.2.2-.2,0-.3-.2h0c.3-.2.6-.5.8-.9h0v-.2q.1,0,0,0h0c-.5,0-.7.4-1,.5h0c0,0-.2,0-.3.3-.2.2-.4.4-.7.4v.2c-.4,0-.5.4-.7.6,0,0,0,.2.1.2.2,0,.3,0,.4.2h.2c.2-.3.5,0,.8-.2,0,.3-.3.4-.3.7h-.2c0,0-.1-.3-.2,0h.2c.2.5-.2.8-.3,1.1,0,.2-.3.3-.4.6-.2.5-.4.9-.8,1.2-.1,0-.2.2-.3.3-.3.4-.9.7-1,1.3-.3.3-.6.6-1,.8-.4.2-.6.6-1,.8h-.1c-.3.2-.6.2-.9.3-.3,0-.4.4-.7.5q-.5.2-.8.2c-.3,0-.6,0-.8-.2-.7,0-1-.3-.9-1,0,0,0-.2-.1-.3q-.2-.4,0-.8c.3-.5.4-1.1.9-1.4.3-.2.3-.7.6-.9.1-.5.5-.8.8-1.1.8-.8,1.6-1.6,2.4-2.4.3-.3.5-.6,1-.8.3,0,.5-.5.9-.6h.2q0,0,0,0h0c0-.5.3-.8.6-1.2.2-.2.6-.4.6-.8.2-.2.5-.2.7-.5.5-.6,1.1-1.1,1.7-1.7.3-.2.4-.7.9-.7.1-.3.3-.6.5-.8.7-.6,1.3-1.3,1.9-1.9.2-.2.3-.4.5-.6-.1-.4.4-.7.3-1.2v-.9c0-.3,0-.5.3-.7l-.2-.3c.5-.5.2-1.1.2-1.6s.4-.5.3-.9v-2.8c0-.4,0-.8-.4-1-.1,0-.2-.2-.3-.3-.2-.2-.1-.5-.4-.6,0-.4-.1-.8.1-1.1.2-.3,0-.6.3-.8s.1-.5.1-.7c0-.3.2-.4.3-.5.2,0,.5,0,.6-.4.4-.5.9-.6,1.4-.9h.6c.4,0,.9,0,1.3,0s.6.6.9.9c0,0,.3.2.2.3-.1.4.2.6.3.9,0,.4,0,.8.2,1.2.1,0,.1.5,0,.6-.4.5-.2,1-.2,1.5v4.1c.2,0,.2,0,.3,0,.4-.4.8-.8,1.2-1.2.4-.5,1-.7,1.4-1.1s.8-.8,1.2-1.2.6-.2.7-.4c.2-.3.5-.5.7-.7s.4-.5.6-.6c.3-.3.7-.4,1-.7s.6-.6.9-.9c.2-.2.4,0,.5-.3.1-.2.3-.4.5-.5.4-.2.8-.5,1.3-.4.1,0,.2,0,.3.2.2.2.2.3.1.4-.4.4-.9.9-1.3,1.3-.2.2-.2.5,0,.7h.2c0,.3-.3.4-.5.6v.2h.1l.8-.4c.4-.4.8-.8,1.2-1.2s.2-.2.5,0c0,0,.1,0,0,.2-.1.2-.4.3-.5.6h-.1s-.2,0,0,.2l.2-.2h0c.2,0,.3,0,.5,0,.1-.2.2-.2.4,0h.2c.2.3.3.5.5.7l-.2.4ZM210.3,87.5s-.1,0-.2,0-.2,0-.3,0c.1,0,.2,0,.3,0,0,0,.1,0,.2,0ZM211.1,87.3c0-.2-.2-.2-.3-.2,0,0-.1,0-.2,0,0,0,.1,0,.2,0h.3ZM212.5,83.8h-.1.1ZM214.8,84.8h.1c0,0-.1,0-.2,0h0q0,0,.1,0h0ZM215,86.3h0ZM215.8,85.5h-.3c0,0,0-.2.2-.2v.2h.1ZM215.9,85.5h.1c0,0-.1,0-.2,0h0q0,0,.1,0h0ZM216,84.2c-.2,0-.3,0-.3-.3.2,0,.3,0,.3.3ZM216.8,83.3h0q0,0,0,0ZM217.1,84.8h.2-.2ZM221,65.6v-.2c0,0,0,0-.2,0q-.3.3,0,.6h0s.1,0,.1-.2v-.2h0ZM226.5,89.4h0v-.2h0v.2ZM228.5,86.2h.2-.2ZM229,87.2h0ZM231.2,83.1q.1.2,0,.4s-.1,0-.2.2c-.2.2,0,.3,0,.4v.2h-.3s-.2-.2-.2,0c0,.3-.3.4-.3.7-.2,0-.4,0-.6.2h0c-.1,0-.2-.2-.4-.4,0,0,.1,0,.2,0,.4,0,.7,0,.9-.6,0-.3.4-.5.6-.7s.2-.2.2-.4h.1c0,0,0,0,.1,0v.2-.2ZM230.9,85.4s-.1,0-.2,0c-.1-.2-.3-.2-.5-.3,0,0-.1-.5,0-.5h.4c.2.2.5.3.4.6h0ZM232.2,82.2s.1,0,.2,0h0s-.1,0-.2.2c0,0-.2,0-.3,0v-.2c0,0,.2-.2.3,0ZM232.8,81.1h.1c0,0-.1,0-.2,0h0q0,0,.1,0h0ZM233.6,79.8v.2h0v-.2h0ZM233.8,79.3v.2h0v-.2h0ZM234.4,79v.2h0v-.2h0ZM235,64.9v-.2h0v.2h0ZM235.5,64.7c0-.2,0-.3.3-.3,0,.2,0,.3-.3.3ZM235.8,64.5c0-.3.2-.5.5-.5,0,.2,0,.4-.2.5h-.4,0ZM236,77.2h-.2.2ZM236.3,63.9v-.2s.2,0,.2-.2c0-.4.2-.4.5-.4h.2v.2c-.2.2-.4.4-.6.5h-.4.1ZM236.5,65.3h0v.2h0v-.2ZM237.4,64.8h0ZM238.4,64.7h0q0,0,.1-.2h0s0,0-.1.2h-.1.1Z"/>
    <path class="st1" d="M262.9,66c-.2.2-.2.3-.2.6v2.5c-.4.2,0,.9-.5,1.1.2.4-.3.7-.3,1.1-.4.2,0,.8-.5,1-.1.4-.3.7-.5,1s-.3.7-.5,1c-.3.5-.5.9-.8,1.4-.3.4-.6.9-.7,1.4-.4.4-.6.8-.8,1.3-.4.3-.5.9-.9,1.2-.2,0-.2.4-.3.6,0,0,0,.2-.1.3-.2.3-.6.4-.7.9,0,.3-.5.4-.5.8l-.3.3c-.2.3-.7.5-.8,1-.3.3-.7.6-.9.9-.3.7-.9,1.1-1.4,1.6s-1.1,1-1.6,1.6c-.2.2-.5.2-.7.4-.2.3-.4.6-.7.7s-.5.4-.7.5c-.3,0-.6.3-.8.6-.2.2-.5.2-.8.3-.3,0-.5.4-.8.5-.3,0-.6,0-.8.3h-.9c-.3,0-.6-.3-.9-.2-.3,0-.5-.4-.8-.3-.2-.4-.6,0-.9-.4-.3-.2-.7-.3-.9-.5-.3-.3-.7-.3-.9-.6-.2-.3-.6-.3-.8-.5s-.3-.5-.7-.6c-.4,0-.5-.4-.8-.6-.2-.2-.5-.2-.7-.4q-.3-.3-.6,0c0,0-.2.3-.3.4-.2.3-.6.5-.7.9,0,.4-.6.4-.5.8,0,0-.2.3-.3.4-.2.3-.6.5-.7.9,0,.4-.6.4-.5.8,0,0-.2.3-.3.4-.2.2-.4.4-.5.7,0,.3-.4.4-.5.7,0,.3-.4.5-.5.7,0,0,0,.3-.2.3-.4.2-.3.6-.5.8-.3.3-.5.6-.8,1-.2.3-.5.7-.6,1.1s-.6.5-.6.9-.4.3-.4.6-.2.3-.4.5c0,0-.1.2-.2.3-.1.4-.4.7-.6,1-.2.3-.4.6-.5,1-.4.2-.4.7-.7,1,0,0-.2,0-.2.2,0,.3-.3.4-.3.7s-.5.4-.5.7-.2.4-.3.7c-.2.4-.6.8-.8,1.2-.1.4-.5.8-.5,1.2-.5.3-.6.9-1,1.3q-.3.3,0,0l-.7-.4c.4,0,.5-.4.4-.8v-.2c.1,0,.2,0,.3-.2v-.4c.1,0,.2,0,.3-.2v-.4c.1,0,.2,0,.3-.2v-.4c.1,0,.2,0,.3-.2v-.4c.1,0,.2,0,.3-.2v-.4c.1,0,.2,0,.3-.2v-.3h0v-.2q.1,0,0,0h0c-.2,0-.2.2-.2.3v.4c-.1,0-.2,0-.3.2v.4c-.1,0-.2,0-.3.2v.4c-.1,0-.2,0-.3.2v.4c-.1,0-.2,0-.3.2v.4c-.1,0-.2,0-.3.2v.4h-.1c0,.3-.4.6-.4,1l-1.3-.7c.4,0,.6-.4.5-.8v-.2c.1,0,.2,0,.3-.2v-.3h0c.1-.2.3-.3.4-.5,0,0,0,0-.3,0h0c.2-.4.1-.4.1-.4-.1.2-.4.3-.4.6q-.2.2-.2.3v.4h-.1c0,.4-.5.6-.4,1l-.4-.3c.4-.8.8-1.5,1.2-2.3.3-.5.4-1.1.9-1.6,0-.4.5-.6.4-1,0-.2.1-.3.2-.4,0,0,.3,0,.2-.4,0,0-.2,0-.1-.3h.2c.1,0,.2,0,.2,0h-.3c.1,0,0,0,0,0,0,0-.2,0-.2,0h0c-.5.3-.7.6-.9.9s-.3.6-.5,1c-.6,1.3-1.3,2.5-1.9,3.8l-.8-.5s.1,0,.2-.2v-.2c-.5-.5,0-.7.2-.9.1,0,0-.2,0-.4,0-.4.1-.6.4-.9.3-.3.4-.7.6-1.1.1-.3.5-.6.4-1v-.2c.6-.6.8-1.4,1.2-2.1.2-.3.3-.7.6-1.1.2-.2.3-.6.4-.9.1-.2.2-.4.3-.6,0-.2.4-.3.4-.6s.4-.4.3-.7c.6-.5.6-1.4,1.3-1.8v-.2c.3-.4.5-.8.8-1.1.3-.4.3-.8.7-1.1h0c-.1-.3.4-.5.3-.8.2-.2.5-.3.5-.7s.3-.4.5-.6c-.1-.3.4-.5.3-.8.6-.5.6-1.4,1.3-1.8,0-.3.2-.5.4-.6.4-.2.4-.6.6-.9.1-.2.2-.5.4-.6.2-.2.1-.5.4-.6.2,0,0-.4.3-.5.2,0,.3-.3.4-.6,0-.2.3-.4.5-.6.3-.2.1-.6.5-.7.3,0,.2-.4.4-.6s.2-.6.5-.7.2-.5.4-.6c.2-.2.5-.3.4-.6.2-.2.4-.4.5-.6,0,0,.2-.2.2-.3,0-.4.5-.5.5-.8s.2-.4.2-.5c0-.4.4-.2.4-.3.1-.4.4-.7.8-1,.3-.2.3-.7.6-.9.2-.2.3-.4.3-.7s0-.2.2-.2.3,0,.3-.2c0-.3.2-.4.3-.5.2-.2.2-.5.4-.6s.4-.2.4-.5.2-.3.4-.5.5-.4.6-.7c0-.3.3-.5.5-.7.1-.2,0-.3,0-.5s0-.2.2-.2.3,0,.3-.2c0-.5.6-.5.5-1,.2-.3.4-.6.5-1,0-.2.3-.3.4-.5.1,0,.3-.2.3-.4,0-.4.3-.6.6-.8,0-.3.3-.4.3-.7v-.2c.5,0,.4-.4.6-.6.2-.3.2-.8.6-1.1.3-.2.3-.7.6-.9.2,0,.1-.3.2-.4.1-.2.2-.3.3-.5,0-.2.3-.3.4-.5,0-.2,0-.4.3-.5s.1-.6.5-.7c.3,0,.4-.3.6-.4.2,0,0-.7,0-.5.3.4.9.5,1.2.9.2.2.4.6.8.6.2.2.4.4.6.6.3.3.4.6,0,1h0c.6.3,0,.7,0,1-.1.3-.3.7-.6.9-.2.2-.4.3-.4.6h0c.2-.1.4-.1.6-.2.2-.2.4-.5.7-.6.2-.2.6-.2.8-.3.4-.4,1-.6,1.5-.9.5-.2,1-.6,1.5-.7.2-.4.6,0,.8-.3s.5-.2.7-.2.3,0,.4-.2c0,0,.3,0,.3,0,.2.2.5.2.6.4.2.2.4,0,.6,0,.1,0,.2,0,.3.2.2.2.5.5.7.7.3.3.6.6.9.9.3.3.7.4,1,.7.3.4.5.6.6,1.3,0,.2.3.3.3.5v.6c0,.2.1.3.2.4v.3h.6ZM224.9,98h-.2.2ZM225.4,97h-.2.2ZM225.4,100.4v-.2h0v.2h0ZM225.7,96.4h-.2.2ZM241.8,85.3c.3.2.7.3,1.1.6-.2,0-.4-.3-.6-.4-.6-.3-1.2-.5-1.7-.9h-.1c0-.2,0-.3-.3-.3,0-.2,0-.3-.3-.3q0-.2-.3-.3c0,.2,0,.3.3.3,0,.2,0,.3.3.3,0,0,0,0,.3.3h0v.4h-.4c-.2-.3-.5-.5-.7-.7-.1,0-.2-.2-.4-.4h-.2c0,.4.4.5.3.8,0,0,.2,0,.3,0,.5.2.7.9,1.4.8h0c0,.2,0,.4.3.4s.4.4.7.3l.3.2c.3-.4.3,0,.4.2.2.4.6.5.9.3.1,0,.3-.2.4-.2h.5c.1,0,.2,0-2.5-1.6h0ZM239.7,83.8h0c0,0-.1-.3-.2,0h.2ZM239.6,83.8h0ZM257.2,66.8s-.1,0-.2,0-.2,0-.3,0c-.3,0-.6.3-.9.4-.3.2-.7.2-.8.5-.4,0-.5.5-.8.5s-.4.3-.7.3-.4.3-.6.5c-.2.2-.4.2-.6.4-.2.2-.5.4-.6.6-.2.3-.5.2-.7.4-.3.3-.6.6-.9.9-.3.3-.5.6-.8.8-.3.3-.7.4-1,.7-.2.3-.5.5-.7.7-.3.3-.6.6-.8.8l-.7.7c-.3.2-.3.7-.6.9-.3.2-.5.5-.7.7l-.7.7c-.3.2-.3.6-.5.8-.4.5-1.1.9-1.4,1.5-.3.6-.9,1-1.4,1.5h0c-.1,0-.1.3,0,.4.2.2.4.3.5.6.2.3.5.2.7.5.5.7,1.2,1,2,.9h.5c.5.2.9-.3,1.3-.3s.3-.3.5-.3c.4,0,.5-.6.9-.5l.3-.3c.5-.5.9-.9,1.4-1.4.4-.4,1-.7,1.1-1.4h.2c.3,0,.5-.2.5-.5s.6-.5.5-.9h0c.6-.4.8-1.2,1.4-1.6,0-.3.2-.5.5-.5,0-.7,1-.8.9-1.6,0,0,0,0,.2-.2.2-.2.4-.3.5-.6.1-.3.3-.5.5-.7.2-.3.5-.7.4-1.1,0-.2,0-.4.2-.4.4-.2.3-.6.5-.8.2-.2.2-.7.4-.9.4-.3,0-.8.4-1v-.6c0-.3,0-.5.2-.7v-.5h0ZM244.2,87.3h-.2.2ZM244.4,86.6c0,0-.1-.2-.3-.2h0c.1,0,.2,0,.4.2h0ZM245.2,86.6h-.2.2ZM249.3,84.3v-.2h0v.2h0ZM256.8,73.4v-.2q.1,0,0,0h0c0,0-.1,0-.1,0h0c-.2,0-.5,0-.5.3s-.1.3-.2.4c-.1.2-.3.2-.3,0v-.2c.4-.2.2-.6.3-.9.3,0,.6,0,.6-.4h.2c0-.2-.2-.3-.3-.4,0,0-.2,0-.2,0,0,.3-.4.5-.3.9q-.2,0-.3.2c-.1.3-.3.7-.3,1-.5.4-.6,1-.9,1.4-.1,0,0,.3,0,.5h.3v.6c-.1.3-.4.4-.6.7-.1,0,0,0,0,0-.2-.2-.3,0-.4,0-.2.3-.4.8-.7,1-.4.3-.5.9-.9,1.2-.1,0-.1.3-.2.4-.2.3-.3.7-.6.9-.4.3-.7.7-1,1v.2h0c0,.2.1.2.2,0,.2-.2.4-.6.8-.5v.3q-.2,0-.3.3c.2,0,.3,0,.3-.3.5,0,.6,0,.5-.5.2,0,.4,0,.5-.2.2-.5.3-1.1.9-1.2,0,0,.1,0,.2-.2l.7-.7s.1,0,.2-.2h0c.2-.4.2-.7.4-1,.1-.2,0-.2-.1-.3v-.2c.2,0,.4,0,.4-.3v-.4c.3-.4.5-.9.7-1.4.1-.4.6-.5.6-.9l.2-.2c.2-.2.4-.3,0-.6,0,0,.2-.2.3-.4h0v.2ZM250.7,82.3h-.1s-.2,0,0,.2v-.2ZM250.7,82.3h0ZM254.3,76.1h-.1v.2s0,0,.1.2c0,0,.1,0,.1,0v-.2h0c0,0-.1,0-.1,0ZM256.9,72.3h-.2v.5h0c.2-.2.4-.4.5-.5s0,0-.5,0h.2ZM257.5,72.1h0c-.1,0-.2-.2-.3,0-.2,0-.1.3-.2.4.1,0,.3,0,.6-.2h-.1ZM257.9,69.3c-.1,0-.2,0-.3,0,0,0-.1.2-.2.3,0,0,.1.2.2.2h0l.2-.2v-.2h0ZM257.7,71.1h-.1s-.2,0,0,.2l.2-.2h-.1ZM257.7,71.1s0,0,.1-.2c0,0-.1,0-.1,0h0ZM258,70.9l-.2.2h0v-.2h.2ZM258.8,67.7v.2s-.2,0-.2.3h-.3c0,0-.1-.3-.2,0h.2c0,.3,0,.4.3.4v.3c0,.2-.1.4,0,.5.2,0,.1-.2.2-.3,0,0,.1,0,.2,0,.2,0,.3,0,.3-.3s-.1-.6-.5-.7v-.2ZM258.5,69.6h0v.2h0v-.2ZM258.8,67.7h0c0,0-.1-.3-.2,0h.2Z"/>
    <path class="st1" d="M287.6,73.2h0c0,.2,0,0-.2,0-.4-.3-.4-.2-.6,0-.3.2-.1.6-.4.8.6.6-.3.3-.3.6h0c-.5,0-.8.2-1.1.6-.1.2-.3.3-.5.3s0,.5-.3.5-.4.2-.5.3c-.2.2,0,.4-.3.6-.1,0-.2.2-.4,0h0c0,0-.1,0-.1,0s0,.2.1.4c.2.4,0,.8-.5.8s-.2,0-.2-.3h.2q0-.2-.2-.2v-.2q-.2,0-.2.2h-.2q0,.2.2.2c.1.4-.2.5-.3.8,0,0,0,.3-.2.2v-.2c0-.3-.3-.4-.4-.2-.1,0-.5.3-.1.6v.2h-.6l-.5.4c0,0,.1.2.2.3l.2.2c.1,0,.1.2,0,.2-.2,0-.4,0-.5.3,0,0-.1,0-.2,0,0-.2,0-.6-.3-.2-.2.2-.3,0-.5,0s-.2,0-.2.2h.2c.5,0,.6,0,.5.3,0,.3-.3.2-.5.2h0c0,0-.1-.3-.2,0,0,0,0,0,.2.2h0c0,.2.2.5,0,.5-.5,0-.7.5-1,.8-.2.2-.2,0-.3,0h-.2c0,.2,0,.3-.3.5-.4.2-.8.4-1.1.8-.2.2-.3.5-.6.5s-.4.2-.5.4c-.2.3-.5.2-.6.4-.1.2-.2,0-.3,0s-.2,0-.2,0c0,.4-.2.7-.6.8-.4,0-.5.6-.9.6-.3.3-.6.4-.9.7-.3.3-.8.4-1.2.7-.4.3-.9.4-1.3.7-.3.3-.7,0-.9.4-.3,0-.5.4-.9.4s-.3.2-.5.3c-.2,0-.4,0-.6.2h0c-.3,0-.7,0-.9,0-.2.2-.5.2-.7.2h-2c-.3,0-.5,0-.7.3h-.2c-.2,0-.3-.4-.5,0-.5,0-1.1.3-1.6-.2h-.2c-.3.2-.5-.3-.8-.3s-.4-.4-.5-.7c0,0-.2-.3-.4-.4-.3,0-.4,0-.4-.4s-.2-.2-.2-.3c0-.3,0-.6-.3-.9-.1,0,0-.4,0-.7v-3.1c0-.4-.2-.8.1-1.1.3-.3,0-.6.1-.9h0c.3-.4.4-.8.5-1.1,0-.4.3-.6.4-1,0-.2.2-.3.2-.5v-.4c.6-.6.8-1.5,1.2-2.2.1-.2.2-.4.2-.6s.2-.3.3-.4c.3-.2.2-.6.4-.8.1,0,0-.4.2-.4.3-.2.3-.6.5-.9.2-.2.5-.4.6-.7,0-.4.4-.5.5-.8,0-.4.3-.5.5-.8.2-.2.2-.5.4-.8,0-.2.2-.3.3-.4.2-.4.7-.5.8-1.1,0,0,.1-.2.2,0,.6,0,.9-.4,1.1-.8s.4-.6.6-.8c.5,0,.7-.6,1.1-.9.3-.2.5-.5.7-.8.3-.2.4-.5.8-.7.3,0,.5-.5.8-.7.2-.2.5-.3.7-.5s.3-.4.6-.5c.3,0,.4-.4.7-.6,0,0,.1-.2.2-.2.3,0,.4-.3.7-.3s.4-.4.6-.5c.2,0,.4,0,.5-.3.3,0,.4-.2.7-.3.5,0,.9-.6,1.5-.6.1-.2.3-.2.6-.2h2.9c.2.4.6,0,.8.3.1,0,.3.2.4.2,0,0,.2.2.3.3.2.2.4.4.6.6s0,.3,0,.4c0,.2,0,.3.2.5.2.4.4.8.5,1.2.2.4,0,.9,0,1.4s0,.7.2.9v.3c-.4.4-.2.8-.3,1.3v.2c-.3.2,0,.6-.3.9-.2.3-.3.6-.4.9,0,0,0,.2-.1.2-.4.2-.4.8-.7,1.1-.3.3-.4.8-.7,1.1-.3.3-.6.6-.9,1-.3.3-.6.8-.9,1s-.8.6-1.2,1c-.2.2-.5,0-.6.4-.1.2-.3.4-.6.4-.2.3-.7.3-.9.7-.4,0-.6.5-1,.4-.2,0-.2,0-.3.2-.3,0-.6.5-1,.4-.3.2-.6.3-.9.3s-.7.3-1.1.3h-1c-.4,0-.7.3-1.1.3h-2.2c-.2,0-.3,0-.5-.2q-.3-.2-.4,0c-.4.3-.6.8-.8,1.3-.2.4-.3.7-.5,1-.4.4-.5,1-.7,1.5,0,.2-.4.4-.3.7.1.3-.3.4-.3.7.1.4-.4.6-.3,1,0,.3-.1.6-.2.9-.2.4.2.9.7.9h.3c.6.2,1-.3,1.6-.3.2-.3.5-.2.7-.3.2,0,.4-.3.7-.3s.4-.4.7-.3c.1-.2.3-.3.5-.3.5-.4,1-.7,1.6-.9.2-.3.6-.2.7-.5s.4-.2.6-.4c.3-.3.9-.3,1.2-.7.3-.4.7-.4,1-.8.2-.2.5-.3.7-.5s.6-.2.7-.5.5,0,.6-.4c.2-.3.5-.3.7-.5s.4-.5.7-.5c.2-.3.6-.4.9-.7.3-.3.7-.3.9-.7.2-.3.6-.2.7-.5s.5-.2.7-.5c.2-.2.3-.4.6-.4s.3-.5.7-.5.3-.2.4-.3c.2-.2.3-.3.5-.5h.2c.4-.5,1-.7,1.4-1.1.4,0,.5-.7,1-.6.4-.5,1-.6,1.4-1.2,0,0,.1-.2.2-.2.4,0,.5-.5.8-.5s.3-.3.5-.3h1s.1.3,0,.3c-.1.2-.2.4-.5.4s-.2.2,0,.4v.2c-.2.2-.2.6,0,.7.2.2.2.5.2.8,0,0,0,0,0,0h.2c-.1-.4.4-.5.3-.9.3,0,.5-.3.8-.4v.4c-.1.2-.5.4.1.4s.2.2.2.3h-.9ZM258.2,89.2h-.2.2ZM259.2,89.2v-.2h0v.2h0ZM267.6,72.4c.2.2.4.2.5,0,.1,0,.2,0,.4,0,.4,0,.6-.5,1.1-.3l.2-.2c.3,0,.6-.2.9-.4.3-.2.6-.5.9-.7.2,0,.5,0,.6-.4s.5-.2.6-.4c1-1.1,2-2.2,3-3.2,0-.4.5-.6.4-1.1v-.3q0-.3-.3-.2c-.5.2-.9.6-1.4.7-.3,0-.4.5-.7.6-.2,0-.4.4-.6.5-.3,0-.5.3-.7.5-.2.3-.5.3-.7.5-.3.3-.6.5-.8.9-.2.4-.7.4-.9.7-.7.8-1.5,1.6-2.3,2.5-.1,0-.2.3-.1.5h-.1ZM275.3,83.6v-.2h0v.2h0ZM275.9,82.9h-.4v.2h-.1c.1,0,.2,0,.4-.2h.1ZM275.4,81.4h0v-.2h0v.2ZM275.9,82.9c0,0,.2-.3.4-.6-.1,0-.3.3-.4.4h0v.2ZM276.4,82.4l-.4.4h0c.3,0,.5-.2.4-.4ZM278,81.5c0-.2,0-.3-.2-.2-.1,0-.1.4,0,.5h0v-.2h.2ZM278.5,78.6c0-.2-.2-.2-.3-.2,0,0-.1,0-.2,0,0,0,.1,0,.2,0h.3ZM278.2,79.1h-.2.2ZM278.5,81.5h0ZM280.1,78c0-.2-.2-.2-.3-.2,0,0-.1,0-.2,0,0,0,.1,0,.2,0h.3ZM280.5,79.9v.2h0v-.2h0ZM282.1,77.9v.3h-.3v-.3h.3ZM284.2,76.6v.2h0v-.2h0ZM284.7,76.2h0c0,0-.1.2-.2.2-.2,0,0-.2,0-.2h.2ZM285,76s0,0-.1.2h-.1c-.1,0,0,0,0,0h.1c0,0,.1,0,.1,0ZM285.5,73.9v-.2h0c-.1,0-.1.4,0,.5.1,0,.2,0,.2-.2h-.2ZM285.9,75.1h0v.2h0v-.2ZM288.4,70v.3h-.5c-.2.2-.4.2-.6.2s-.3,0-.3-.2c0-.4-.1-.7-.4-.9v-.2h.6q0,0,0,0h0c0-.4.3-.6.5-.8h.3c.1.2.1.4.3.6.1.2-.3.3-.2.5,0,0,0,.2-.2.2h-.1c-.1,0,0,0,0,0v.2h.6v.2ZM287.2,69.3h-.1.1ZM287.8,71.8c0,0-.1.2-.2.2,0,0-.3,0-.2,0,0,0,.1,0,.2,0h.1s.2,0,.2,0h-.1ZM288.5,70.3s0,0,.1.2h0s-.1,0-.2,0h0q0,0,.1,0ZM288.7,69.8c0,.2,0,.3-.3.3,0-.2,0-.3.3-.3ZM288.4,68.2h.2-.2ZM288.9,69.7h0c-.1,0-.2,0-.1,0v-.4h0c.1,0,.1.3,0,.4h.1ZM289.4,68.4h0c0,0-.1.2-.2.2-.2,0,0-.2,0-.2h.2ZM289.6,68.4h0c.1-.2.3-.4.4-.5,0,0,.1,0,.1,0,.1.3,0,.4-.4.4h-.1Z"/>
    <path class="st1" d="M282.2,80.2s-.5.4-.5.2.5-.6.6-.7,0,.4-.1.5ZM282.6,76.6h-.2.2ZM282.4,79.7v-.2c.2,0,0,.2,0,.2ZM282.6,75.5h0c.2,0,0,0,0,0ZM283.2,74.7h.2-.2ZM283.5,78.6h0c-.2-.2.2-.2,0,0ZM293.8,85.5c0,.3-.4.3-.2.8.2,0,.2-.2.2-.4.5,0,1,.5.5-.3.3,0,.3-.4.7-.2.2,0,0,.3.2.4,0,0,.3,0,.4,0l-.4.2c0,.3.2.3.2.6,0,0-.9.4-.8.4v.2c-.1,0-.3-.2-.4-.2-.5,0-.7.7-1.1.9-.2,0-.6,0-.8.3-.3.4.2.4-.4.6h-.6v.4s-.3,0-.5,0-.7.5-.7.5c0,.3.4.5-.3.7-.3,0-.5,0-.8-.2h-.3c-.5,0-.4,0-1,.4-.3.2-.4.2-.8.3.2-.2.2-.3.4-.6.1-.2.4,0,.3-.3,0-.3-.1,0-.3,0,.1,0-.6,0-.5,0-.2,0-.1,0-.3,0-.3.3.1.4,0,.6,0,.2-.7.2-.3.5h1l.2-.2h.5c.2,0,.3-.2.4-.2.2,0,0,.4,0,.5h-.6c-.2,0-.4.3-.6.3s-.3,0-.5,0c-.4,0-.8,0-.9-.5,0,0,.2-.8,0-.5v-.2c-.1.5-.3.3-.6,0,.2-.2.2-.6-.2-.6s0,.4-.2.4c-.3,0-1.1-1.2-1.2-1.4l.2-.2c0-.2-.2-.2-.2-.4,0-.4,0-.3.2-.5,0,0,.3,0,.5,0,.3,0,.4-.5.7-.6q.2,0,.4.2c.2-.4,0-.4-.2-.8-.1-.4.2-.6.3-.9v-.7l.2-.2s.3-.6,0-.3v-.2c-.1.6-.6,1-.8,1.6-.2.4-.3,1.1-.8,1.1s-.1-1.4,0-1.8c.3-.6.5-1.3.8-1.9.5-1,1.2-1.9,1.8-2.8.7-1.2,1.7-2.2,2.4-3.3.8-1.1,1.5-2.2,2.4-3.1.2-.2.4-.4.6-.7.2-.3.5-.5.7-.8.2-.2.2-.5.4-.7.2-.3.6-.5.8-.8.2-.2,1-1.2.8-1.3,0,0-1,.2-1.1.3-.3,0-.5.2-.9.2h-.7c-.2.2-.4.3-.6.2h-.8c-.7,0-.7.7-1.2,1.1v-.8c-.3.2-.2,0-.6,0,0,0-.2-.2-.3-.2,0,0-.1.2-.3.2,0-.4.2-.4,0-.6-.3-.3-.6,0-.9.3-.1,0,0,.3-.2.4s0-.2-.2,0c-.3,0-.2,0-.4.4v.5h-.4v.2c-.2,0-.4,0-.4-.2s.9-1,1-1.3c0,0,.1-.3.1-.4,0,0-.1,0-.1-.2,0,0,.2-.2.2-.3-.2-.6-1.2-1.1-1.5-1.7s-.7-1.3-.9-2c-.1-.6,0-.6.1-1.1.4-1.2.9-2.3,1.8-3.3.2-.3.3-.6.5-.9.2-.2.3-.2.5-.4.4-.4.6-.9,1-1.3.9-.8,1.7-1.6,2.7-2.3.8-.6,1.7-1,2.6-1s.9,0,1.4.6c.4.3,1.1.6,1.4,1,.1.2.2.4.4.6.2.3.5.5.8.8.4.5.3,1.5.1,2.2-.2.6-.6,1.2-1,1.7-.2.2-.8.8-.8,1.1s1.8-.4,2-.5c.7-.2,1.2-.7,2-.9.7-.2,1-.4,1.6.2.2.2.3.5.5.8s.4,0,.4.6c0,0-.4,0-.1.2.1,0,0-.3.2-.2h0s.4.2.3.2c-.3,0,.4.5.3.3,0,0,.3,0,.4.2.7.7.2,1.1-.1,1.8-.8,1.3-1.7,2.6-2.6,3.8-1,1.4-2.2,2.8-3.5,4.1-1.1,1.2-1.9,2.6-3,3.8-.6.6-1.1,1.2-1.6,1.9-.4.5-.6,1.1-1,1.5-.9.9-1.5,2.1-2.1,3.1-.2.3-.3.7-.6.9-.1,0-.2.2-.3.3-.2,0-.1-.2-.2,0-.1,0-.9.6-.6.9s.4-.4.4-.4l.2-.2h.2c.7.3.8.8.1,1.2-.3.2-.6,0-.8.5-.1.3,0,.6.1.8.4.9.5,0,1.1-.2,0,0,.2.2.4.2l.2-.2s0-.3.2-.3.2,0,.4,0c.7,0,1-.2.2-.5.2-.3.7-.4,1-.6.2,0,.5-.5.8-.5h.3c.1.2.3.2.4,0,.2,0,.4-.2.6-.2v-.2ZM283.6,78.3v.2c-.2,0,0-.2,0-.2ZM283.8,75.2h-.1s0-.2.1,0ZM283.8,77.8c.1,0,.2,0,.4,0,0,0-.1,0-.2,0h-.2ZM285.2,72.5h0c.2,0,0,0,0,0ZM285.4,72.2v-.3c.2-.3.2.5,0,.3ZM285.6,84.2v.3c-.1,0,0-.2,0-.3ZM285.6,90.4v.3c-.2,0,0-.2,0-.3ZM285.5,86.8c0,.2.7-.2.7-.4s-.2-.4-.3-.4c0,0-.2-.4-.4-.2,0,0,.2.3.2.4,0,.2-.2.4-.3.6h0ZM286.2,88.4c0,0-.6-.3-.5-.3-.3,0,0,.8.3.8.1-.2.3-.3.3-.5h0ZM285.6,75.9v-.2c.1,0,0,0,0,.2ZM285.9,75.5c0,0,0,.2-.2.2,0,0,0-.2.2-.2ZM286,85.4h-.2s0,.3.2,0ZM286.1,75.3v-.2.2h0c0,0,0,.2-.2.2,0,0,0-.2.2-.2ZM286.2,86.9c0,0-.1-.2-.2,0v.2h.2ZM286.1,87.3c-.1,0-.1.2,0,.3.1,0,.1-.2,0-.3ZM286.3,72.7c-.1,0-.2-.2-.1-.2,0,0,.1,0,.1.2ZM286.2,87h0ZM286.5,72.8c0,0-.3,0,0,0h0ZM286.4,82.6h0c0,.2-.1.2,0,0h0c0,0,0-.3.2-.4h-.1v.2h-.1c-.1,0-.1,0,0,.2ZM286.4,89.1c-.1,0-.1.2,0,.3.1,0,.1-.2,0-.3ZM286.4,82.6v-.2h0v.2ZM286.6,74.8h-.1s0-.2.1,0ZM286.8,86.7s-.3,0-.2,0h.2ZM286.6,82.4s.1,0,.2-.2c0,0-.1,0-.2.2ZM288.2,70.5c.1.2,0,.2,0,.4,0,.3-.9,1.1-1.1,1.2,0-.5,0-.4-.3-.2-.2-.2,0-.6.2-.8.4-.3.5,0,.7,0,.2,0-.1-.4-.1-.5,0,0,.2-.2.3-.2,0,0,.5.2.5,0h-.2ZM286.7,91.1h.2-.2ZM287,81.7s-.3,0-.2,0h.2ZM287,74.2v.2-.2ZM286.9,72.3v-.2c.1,0,0,0,0,.2ZM287.3,73.8c0,.2-.2.3-.4.4,0-.3,0-.4.4-.4ZM287.1,70.7h-.1c-.2-.2.2-.2.1,0ZM287.2,89.1c-.1,0-.1.2,0,.3.1,0,.1-.2,0-.3ZM287.5,73.6c0,0,0,.2-.2.2,0,0,0-.2.2-.2ZM287.5,87.3c-.3,0-.1.4,0,.5.2-.2.1-.2,0-.5ZM287.6,80.9s-.3,0-.2,0h.2ZM287.6,86.4c-.2-.2-.3,0-.2,0h.2ZM287.7,73.4c0,0,0,.2-.2.2,0,0,0-.2.2-.2ZM287.6,72.5h.2s-.1,0-.2,0ZM287.7,73.4c0,0,0-.2.2-.2,0,0,0,.2-.2.2ZM287.8,70.4h0ZM287.8,73.2l.2-.7c.8,0-.2.8-.2.7ZM287.9,70.1v-.2s.1,0,0,.2ZM287.9,89.7s0,.3.4,0c.2,0-.5,0-.4,0ZM288.2,80c.2,0,.3-.3.3-.5h-.3c-.3,0,0,.4,0,.5ZM288.4,72h0c.2-.3.2,0,0,0ZM288.3,85.1h0c0,0,0,0,0,0ZM288.3,85.1h0ZM288.7,72c0,0,0,.2-.1.2-.2,0,0-.2.1-.2ZM288.5,85.1l.3-14.5h-.1c-.2-.2.2-.2.1,0l-.3,14.5ZM288.7,85.7c.1,0,.1-.2,0-.3-.1,0-.1.2,0,.3ZM288.9,71.8c0,0,0,.2-.2.2,0,0,0-.2.2-.2ZM289.4,86.4c-.1.5-.8-.3-.4-.2.2,0,.3,0,.4.2ZM289.1,71.6c0,0,0,.2-.2.2,0,0,0-.2.2-.2ZM289.4,71.2c0,.2-.2.3-.4.4,0-.3,0-.4.4-.4ZM289.6,90.1c0-.2-.3-.3-.4,0,0,.2.3.2.4,0ZM289.3,78.5c.1,0,.1-.2,0-.3-.1,0-.1.2,0,.3ZM292.3,61c-.3,0-.8.6-1,.8-.3.3-.5.6-.7,1s-.6.8-.7,1c0,.2-.6.6-.2.8s.6-.5.8-.7c.5-.8,1.1-1.4,1.6-2.2,0,0,.6-.6.1-.7h.1ZM289.8,85.2c.1.2.2.4.3.5.1.2.5,0,.2.3-.4.5-.8-.5-.5-.8ZM289.8,82.6c.1,0,.1-.2,0-.3-.1,0-.1.2,0,.3ZM290.3,88.3c-.1,0-.1.2,0,.3.1,0,.1-.2,0-.3ZM310.5,69.4c-.4.6,0,.3.1.8s-.7.9-1.2,1c.2-.5.4-.9-.1-.5-.1,0-.4.4-.4.5,0,.2.3.2.3.2,0,.4,0,.9-.3,1.2-.3.4,0,0-.4,0,0,0-.1.2-.2.2-.2,0-.3-.3-.6-.2-.3,0-.4.7-.7.9-.6.6-.4,0-.9,0s-.6.3-.5.6c.1-.4.4,0,.4.2,0,.5-.2.2-.4.4-.7.6,0,.5.6.5,0,.5-.6.8-1,.7.2-.3.2-.6-.3-.4,0,0-.7.7-.7.6,0,.2.4.3,0,.4-.3,0-.3-.3-.4-.5-.2.3-.2.8-.5,1-.2.2-.6,0-.8.3,0,0-.1.3-.2.4,0,0-.2,0-.3,0,0,0-.1.5-.2.5-.4.5-1-.2-1.2.3-.2.3.4.4.6.6-.4.3-.9,0-1.3.3.4.4.7.8.6,1.3-.2.6-.3.2-.7,0,0,.5.5.8.4,1.2,0,.3-.7.6-.9.8-.3.3-1.2,1.3-1.8,1.3s-.3-.6-.7-.7c-.2,0-.9.6-1.1.7-.4.2-.7.4-1,.7-.4.4-.4.6-1,.6,0-.5.5-.7.8-.9-.5-.3-.5,0-.9,0-.3,0-.2-1-.7-1s0,.4,0,.6-.2.4-.4.4c-.4,0,0,0-.1-.3,0-.2.2-.7-.3-.4-.1,0,0,.3-.1.3h-.3c-.2.3-.2.4-.4.6,0,0-.3-.4-.3,0,0,0-.4,0-.1.2-.1,0,.4-.2.4-.2,0,.9-1.2.4-.9-.2l.5-.5c.2,0,.5,0,.5-.3.5.5.2,0,.4-.3.3-.4.9-.3,1.2-.5.3-.3.4-.8.8-1.1.5-.3.8,0,1.3.2-.2.3-.7.3-.9.5-.2.2-.6.9-.5.9,0,0,.2-.3.3-.2.1.2,0,.5.3.7.2-.2.2-.5.6-.7,0,.2,0,.6.4.3.3-.3,0-.4,0-.5.3-.4.7,0,1.2-.2s1.5-1.3,1.2-1.8c-.3-.6-.7-.6-1.2-.4-.1-.3-.2-.2-.3,0-.2.3,0,0,0,.5-.2,0-.5,0-.8,0-.3,0,0,.4-.6.3-.3,0-.2-.4,0-.6.2-.3.5-.2.8-.4.1,0,.1-.4.3-.5.2-.2.5-.2.6-.3.2-.2.2-.4.4-.5.2-.2.7-.6.9-.8.4-.3.6-.4.9-.8.2-.3.5-.4.8-.7.1,0,.2-.4.4-.6.2,0,.4-.2.6-.3.5-.3.8-.8,1.2-1.2.9-.9,1.9-1.7,2.9-2.6.8-.8,1.8-1.5,2.6-2.3.5-.5,1-.9,1.4-1.4.2-.2.8-1,1.1-1,.2,1.3.6-.4.8.3.1.4-.5,1.1-.5,1.2.2.3.6,0,.8-.2.5,0-.2.6-.2.6h0ZM290.9,85l.2-15.7c-.2.4.6.3.8.3.3,0-.6-.5-.8-.3l-.2,15.7ZM291.2,85h0ZM291.7,87.6c-.1,0-.8,0-.4.2.2,0,.3,0,.4-.2ZM293.3,86.4c-.2-.3-.4,0-.2-.3-.3.3-.6.7-.9,1-.6-.3-.5,0-.5.5h0s.7-.4.7-.3h.9c0-.4.4-.4,0-.9ZM291.7,87.6h0ZM291.7,87.6h0ZM291.7,87.6h0ZM293,86.3c-.2.3-.3.5-.5.8,0,0-.2,0-.2,0,.2-.2.5-.5.7-.7ZM293,60.3c-.1,0-.3,0-.4.3-.1,0,.6.4.4-.3ZM293.8,83.5v2.3h0v-2.3ZM295.1,81.6c.1,0,.2,0,.2,0-.1,0-.3,0-.2,0ZM295.4,84.8c0,0,.2,0,.2,0,.2.2-.3,0-.2,0ZM295.7,85.4c-.3-.3.2-.9.6-.7.4.2-.2,1-.6.7ZM295.8,81.6v.2s-.3,0,0-.2ZM296.4,80.8c0,.2,0,.3-.3.3q0-.3.3-.3ZM296.2,81.3c.1,0,.2,0,.2,0-.1,0-.3,0-.2,0ZM296.8,83.9l.4-3.6s0-.4-.2,0c0,0,.1,0,.2,0l-.4,3.6ZM297.2,60.1h-.2s0,.3.2,0ZM297.5,79.5h-.4c-.3,0,.2.6.4,0ZM297.2,80.3h0ZM298.6,79c-.2,0-.3,0-.4,0-.2,0-.2.3-.5.4,0-.2-.2-.3-.3,0,.1-.3.5.5.5.5-.4,0-.5.3-.8.3.3.6.4,0,.8,0q0,.4.2.4c-.1,0,.3-.5.3-.5v-.8c.2-.2.5,0,.7-.2.3-.3-.6-.2-.6-.2h0ZM297.5,79.5l.5.8v-.3c.2,0,.3,0,.3.3h-.3l-.5-.8ZM298,78.8s.2.2.2,0c0,0,0-.4-.2,0ZM298.1,79h0ZM299.1,78.2c.1,0,.1-.2,0-.3-.1,0-.1.2,0,.3ZM299.1,81.3c-.1,0-.1.2,0,.3.1,0,.1-.2,0-.3ZM299.5,78.5s-.4,0-.1.2c0,0,.2-.2.1-.2ZM299.7,78.2c-.1,0-.2,0-.2.2.1,0,.2,0,.2-.2ZM299.7,78.5s0,0,.1-.2c0,0-.2.3-.1.2ZM300.2,78.2l.5-1c-.1,0-.1.2,0,.3.1,0,.1-.2,0-.3l-.5,1ZM300.8,62.4s1,.6,1,.3-.6-.5-.8-.4c0,0-.1,0-.2.1ZM301,77.7c-.1,0-.1.2,0,.3.1,0,.1-.2,0-.3ZM301,79.8c.2.2,0,.2,0,.2v-.2ZM302.7,63.2h0ZM303.2,78.8c-.5.4-.6-.4-.2-.4,0,.2.1.3.2.4ZM303,78.5c-.3-.3.5-.2.6-.2.2,0-.4.4-.6.2ZM303.2,74.4c-.2-.2-.3,0-.2,0h.2ZM304,77.8c0,0-.2,0-.3,0,0,0,.2,0,.3,0ZM304.5,73c-.5.2-1,.7-.7,1.3.4-.2.4-.7.8-.8.7,0,.7-.8,0-.5h0ZM304.7,77.3c-.5.2-1,0-.3-.4l.3.4ZM305.6,74.3c-.3,0,0-.3-.3,0-.1,0-.4.4-.3.6.2.2.9-.3.6-.4h0ZM305.4,76.4c.1,0-.1.9-.2,1,0,0-.3-1.3.2-1ZM306,71.7l-.7.4c0,.2.4.8.6.6.1,0,.2-1,0-1h.1ZM306.6,71.1c-.2,0-.5.3-.5.5.1,0,.3,0,.4-.3.6,0,.8-.6,0-.3h.1ZM306.3,75.3c0-.5,0-.6.5-.5,0,.3-.2.5-.5.5ZM306.3,71.4l.7,3.2c.1,0,0,.3-.1.2,0,0,0-.2.1-.2l-.7-3.2ZM307.1,72.7s-.4,0-.2.2l.2-.2ZM307.4,72.2c-.2,0-.4.4-.3.5,0,0,.3-.6.3-.5ZM307.1,72.7c.1,0,.3-.3.4-.4s-.3.2-.4.4ZM307.2,70.4c0,.2.5.5.7.3s-.4-1-.7-.3ZM307.7,74c-.1,0,0-.2,0-.2.2-.2,0,.3,0,.2ZM308,73.5c.1,0,0,.2-.2.2,0,0,0-.2.2-.2ZM308.2,72s0,.3.4,0c.2,0-.5,0-.4,0ZM309.4,71.2c0,.2,0,.3-.3.3,0-.2,0-.3.3-.3ZM309.4,69.3s0-.4-.2,0c0,0,.2.2.2,0ZM309.6,69.6s0,0-.2-.2c0,0,0,0,.2.2ZM309.4,69.4s.2,0,.2,0c0,0-.2-.3-.2,0ZM309.7,67.5c0-.2,0-.3.3-.3,0,.2,0,.3-.3.3ZM309.8,68.3c-.1,0-.1.2,0,.3.1,0,.1-.2,0-.3ZM310.1,67c.1,0,.1,0,0,.2-.2,0,0-.2,0-.2ZM310.8,68c-.1,0,0-.2,0-.2.2-.2,0,.3,0,.2ZM311,67.8c0-.3.2-.4.4-.6h.1c.2.6-.5.4-.5.6Z"/>
    <path class="st1" d="M320.8,76.6c-.3.2-.2.5-.2.8h0s-.2,0-.2,0c0-.2,0-.5-.3-.7s-.1,0-.2-.2c0,0-.1,0-.1.2v.8h-.2v-.6q0-.2-.2-.3h-.2c-.4.2-.4.6-.3.9,0,0,.1,0,.2,0,.2,0,.3,0,.4,0h.1c.1,0,.2,0,.1,0,0,0,0-.2,0,0q0,.3.1.4s.3.2,0,.3-.4.2-.5.3c-.2.2-.4.6-.8.6s-.3.5-.7.5c0,0-.2,0-.2.2-.2.4-.8.4-1,.8-.2.3-.5.5-.8.6s-.6.3-.8.6c-.1,0-.2.4-.4.4-.5,0-.5.5-.8.6-.3,0-.4.3-.6.5s-.4,0-.6.3c-.1.3-.5.3-.7.5s-.4.4-.7.5c-.3,0-.3.5-.7.5s-.3.5-.7.6c-.3,0-.4.3-.7.4-.3,0-.3.5-.7.6-.2,0-.4.4-.6.5,0,0-.3,0-.4,0,0,0-.2.2-.3.2s-.2.2-.3.2c-.3,0-.5.2-.6.4,0,0-.2.3-.3.2-.4-.2-.6.4-1,.3-.1.3-.5.3-.8.5s-.6.4-.9.5c-.5,0-.9.4-1.4.3h-1.1q-.1,0,0,.2h-.7c-.3-.3-.8-.5-1-.9-.2-.5-.3-.9-.2-1.6,0-.2-.3-.3-.3-.5v-.5c0-.4,0-.6.2-1,.1-.3-.2-.7.2-1-.2-.4.3-.8.2-1.2,0-.2.2-.3.2-.4.1-.7.6-1.3.8-2,.3-.2.2-.7.5-.9.2,0,.2-.3.2-.5v-.4c.2-.2.4-.3.4-.6s.4-.5.5-.8c0-.3.4-.4.3-.7.4-.3.4-.7.7-1.1.2-.3.4-.7.6-1,.2-.2.1-.6.4-.8.3-.2.5-.5.6-.9,0-.3.5-.4.4-.8h0c.3-.5.7-.8.9-1.2.2-.5.6-.8.9-1.1.2-.3.4-.6.5-.9s.3-.5.4-.8c.2-.3.2-.7.6-1,.3-.2-.2.3,0,0s.4-.4.3-.9c.2-.2.6-.4.8-.6.2-.2.2-.5.3-.7.5-.5.9-1,1.4-1.5.1-.7.8-1,1.2-1.6.2-.2.4-.3.7-.4.5,0,.9-.9,1.2-.5.2.2.4.3.7.3s.3-.2.6-.2.3,0,.5.2c.4.2.6.8,1.2.8.2.2.3.5.4.7,0,0,0,.2-.2.3-.2.2-.8,1-.8,1.1,0,.2-.2.4-.3.5-.2.2-.4.4-.5.6-.2.3-.2.7-.5.9-.2.2-.4.4-.5.7-.1.3-.5.5-.7.8,0,.4-.3.5-.4.8-.2.2-.5.5-.5.7-.1.4-.4.6-.6.8-.2.2-.4.4-.5.8,0,.2-.3.3-.4.5-.2.2-.4.4-.5.6.1.3-.2.5-.3.7-.2.2-.4.4-.5.6-.2.2-.2.6-.4.8-.3.2-.4.5-.5.9-.1.3-.4.4-.4.8s-.4.4-.5.8c0,.2-.4.4-.5.6,0,.2-.1.4-.3.5-.2.2-.1.5-.3.7-.3.3-.5.7-.6,1.1,0,.4-.5.5-.5.9s-.3.7-.5,1c-.1.3-.3.6-.4.9-.2.4-.3.8-.6,1.2v.2c0,0,0,0,.2,0,.4-.3,0-1.1.4-1.5.3-.3.9-.5,1.3-.8,0,.2.1.3.3.2,0,0,0,.2.1.2s.2,0,.2-.2h.2c.1,0,.2,0,.2-.2h-.4c.1,0,0-.2,0,0,0,0-.2,0-.2.2h-.3c0-.2-.1-.3-.3-.2h0c.4-.4.9-.5,1.2-.9h.4c0,.3,0,.5.2.5h.7c.3,0,.2.2.2.4h0c-.1,0-.3,0-.4,0s-.2,0-.2.3h-.4c-.1,0-.2,0-.2.3h-.1s-.2.2,0,.2v-.2h.5c.1,0,.2,0,.2-.3.1,0,.2,0,.3,0,.2,0,.2,0,.2,0v-.4h.6c.3,0,.3-.2.2-.5,0,0-.2-.2-.2-.3s0-.3.2-.3h.4c0,.3,0,.6.2.6s.3,0,.4-.3c.3-.4.9-.5,1.1-.9.5,0,.6-.7,1.1-.6,0-.2,0-.4.2-.5.2-.2.5,0,.7-.2s.3-.4.6-.5c.2,0,.4-.4.6-.6s0-.5.3-.5.3-.2.4-.2c.3,0,.4-.3.7-.4.1,0,.3,0,.3-.2,0-.6.6-.6.8-.9.3-.3.4-.7.9-.7.2-.3.6-.5.9-.7.1,0,.3,0,.5,0h0s.1,0,.2,0v-.2h0c0-.3.1-.4.4-.6.1,0,.3,0,.3,0-.2.2-.2.3,0,.5.1,0-.2.3-.2.5s-.1.2-.3.2c-.3,0-.3.3-.1.5.2,0,.3.3.6.3s.3.3.2.4v1.1ZM300.4,90.3s.1,0,.2,0c.2.2,0,0-.2,0ZM306.8,82.4h.2v.2h0l-.2-.2ZM307.7,83.6h0c-.1,0-.4,0-.5,0h0c.1,0,.4,0,.5,0ZM307.6,82.3c.1,0,.2,0,.4,0,0,0,.1,0,.2,0h-.2c-.1,0-.2,0-.3,0h-.1ZM307.8,81.3c0-.3.2-.5.3-.5.4,0,.6-.4.8-.6.2-.2.2-.3.4-.2.1,0,.2.2.3.2,0,0,0,.2.1.2l.2.2s-.1,0-.2,0h-.3c-.3,0-.5.2-.5.6,0,.6,0,0,0,0s-.1,0-.2,0c-.3-.3-.6,0-.9,0h0ZM307.9,83h0ZM310.6,79.8c-.4,0-.4.4-.8.3-.1,0-.2,0-.1,0v-.4c.1,0,.2-.2.3-.3.2,0,.5.2.7.2h0s0,0,0,0v.3ZM310.4,81.2v.2h0s0,0-.1-.2h0c0,0,.1,0,.1,0ZM310.6,79.3h0v-.2h.1v.2h-.1ZM310.6,80.5s.1,0,.2,0h.2c0,0,0,.2-.1,0h-.3s-.1,0-.2,0h.2ZM311.1,80.7h0q0,0,.1,0h.1c0,0-.1,0-.2,0h0ZM312.2,79.8s-.1,0-.2,0c-.2,0,0-.2,0-.2h.1c0,0,.1,0,.1,0ZM312.1,79.6l.2-.2h.3c0,0-.1.2-.2.2,0,0-.3,0-.3,0h0ZM313.2,79h-.2.2ZM322.2,57.7c-.2.2,0,.4-.2.6-.2.2,0,.5-.2.6s-.4,0-.5.3c-.5,0-.8.5-1.4.4-.2,0-.3,0-.5.2-.3.2-.7.2-1,0-.1,0-.2-.2-.3-.2-.3,0-.7,0-1-.2h-.4q-.6,0-.8,0s-.2-.2-.3-.3c-.3-.2-.3-.4-.3-.7v-.2c-.5,0-.6,0-.6-.4v-1.1c0-.2,0-.3.2-.5,0,0,.3-.2.3-.3,0-.5.3-.5.6-.5s.5,0,.7-.4c0,0,.2-.2.3-.2h.7c.2,0,.3-.2.4-.3.3,0,.8,0,1-.3.3,0,.6,0,.8-.3,0,0,.3,0,.5,0s.2,0,.5,0c0,0,.1-.2.3,0,.2,0,.4.2.6.2,0,.4.4.5.5.7,0,0,0,.2.1.4v.8c0,.3.1.3.2.4.1,0,.1.3,0,.4-.1,0-.1.2,0,.3.2,0,.2.3,0,.4h-.2ZM316.3,76.4h-.2.2ZM317,75.9v-.2h0s0,0,.1.2h0c0,0-.1,0-.1,0ZM318.3,75c-.1,0-.2-.4,0-.4s.2,0,.2.2v.2h-.2ZM319.3,74.1h0c0,0,.3-.2.5,0h0c0,0-.3.2-.5,0ZM320,74.7h-.1.1ZM321.2,74.3h-.2c0-.3.2,0,.2,0h0ZM321.5,74.4h0s-.1,0-.2,0h0q0,0,.1,0h.1v.2ZM321.5,72.7s0,0,.1.2h0c0,0,0,0,0,0h-.1ZM322.3,71.6v.2h-.1v-.2h.1ZM322.8,71h0c-.1,0-.2-.4,0-.4h0c.1,0,.2.4,0,.4Z"/>
    <path class="st1" d="M344.7,73.2h0c0,.2,0,0-.2,0-.4-.3-.4-.2-.6,0-.3.2-.1.6-.4.8.6.6-.3.3-.3.6h0c-.5,0-.8.2-1.1.6-.1.2-.3.3-.5.3s0,.5-.3.5-.4.2-.5.3c-.2.2,0,.4-.3.6-.1,0-.2.2-.4,0h0c0,0-.1,0-.1,0s0,.2.1.4c.2.4,0,.8-.5.8s-.2,0-.2-.3h.2q0-.2-.2-.2v-.2q-.2,0-.2.2h-.2q0,.2.2.2c.1.4-.2.5-.3.8,0,0,0,.3-.2.2v-.2c0-.3-.3-.4-.4-.2-.1,0-.5.3-.1.6v.2h-.6l-.5.4c0,0,.1.2.2.3l.2.2c.1,0,.1.2,0,.2-.2,0-.4,0-.5.3,0,0-.1,0-.2,0,0-.2,0-.6-.3-.2-.2.2-.3,0-.5,0s-.2,0-.2.2h.2c.5,0,.6,0,.5.3,0,.3-.3.2-.5.2h0c0,0-.1-.3-.2,0,0,0,0,0,.2.2h0c0,.2.2.5,0,.5-.5,0-.7.5-1,.8-.2.2-.2,0-.3,0h-.2c0,.2,0,.3-.3.5-.4.2-.8.4-1.1.8-.2.2-.3.5-.6.5s-.4.2-.5.4c-.2.3-.5.2-.6.4-.1.2-.2,0-.3,0s-.2,0-.2,0c0,.4-.2.7-.6.8-.4,0-.5.6-.9.6-.3.3-.6.4-.9.7-.3.3-.8.4-1.2.7-.4.3-.9.4-1.3.7-.3.3-.7,0-.9.4-.3,0-.5.4-.9.4s-.3.2-.5.3c-.2,0-.4,0-.6.2h0c-.3,0-.7,0-.9,0-.2.2-.5.2-.7.2h-2c-.3,0-.5,0-.7.3h-.2c-.2,0-.3-.4-.5,0-.5,0-1.1.3-1.6-.2h-.2c-.4.2-.5-.3-.8-.3s-.4-.4-.5-.7c0,0-.2-.3-.4-.4-.3,0-.4,0-.4-.4s-.2-.2-.2-.3c0-.3,0-.6-.3-.9-.1,0,0-.4,0-.7v-3.1c0-.4-.2-.8.1-1.1.3-.3,0-.6.1-.9h0c.3-.4.4-.8.5-1.1,0-.4.3-.6.4-1,0-.2.2-.3.2-.5v-.4c.6-.6.8-1.5,1.2-2.2.1-.2.2-.4.2-.6s.2-.3.3-.4c.3-.2.2-.6.4-.8.1,0,0-.4.2-.4.3-.2.3-.6.5-.9.2-.2.5-.4.6-.7,0-.4.4-.5.5-.8,0-.4.3-.5.5-.8.2-.2.2-.5.4-.8,0-.2.2-.3.3-.4.2-.4.7-.5.8-1.1,0,0,.1-.2.2,0,.6,0,.9-.4,1.1-.8s.4-.6.6-.8c.5,0,.7-.6,1.1-.9.3-.2.5-.5.7-.8.3-.2.4-.5.8-.7.3,0,.5-.5.8-.7s.5-.3.7-.5.3-.4.6-.5c.3,0,.4-.4.7-.6,0,0,.1-.2.2-.2.3,0,.4-.3.7-.3s.4-.4.6-.5c.2,0,.4,0,.5-.3.3,0,.4-.2.7-.3.5,0,.9-.6,1.5-.6.1-.2.3-.2.6-.2h2.9c.2.4.6,0,.8.3.1,0,.3.2.4.2,0,0,.2.2.3.3.2.2.4.4.6.6s0,.3,0,.4c0,.2,0,.3.2.5.2.4.4.8.5,1.2.2.4,0,.9,0,1.4s0,.7.2.9v.3c-.4.4-.2.8-.3,1.3v.2c-.3.2,0,.6-.3.9-.2.3-.3.6-.4.9,0,0,0,.2-.1.2-.4.2-.4.8-.7,1.1-.3.3-.4.8-.7,1.1-.3.3-.6.6-.9,1-.3.3-.6.8-.9,1s-.8.6-1.2,1c-.2.2-.5,0-.6.4-.1.2-.3.4-.6.4-.2.3-.7.3-.9.7-.4,0-.6.5-1,.4-.2,0-.2,0-.3.2-.3,0-.6.5-1,.4-.3.2-.6.3-.9.3s-.7.3-1.1.3h-1c-.4,0-.7.3-1.1.3h-2.2c-.2,0-.3,0-.5-.2q-.3-.2-.4,0c-.4.3-.6.8-.8,1.3-.2.4-.3.7-.5,1-.4.4-.5,1-.7,1.5,0,.2-.4.4-.3.7s-.3.4-.3.7c.1.4-.3.6-.3,1s-.1.6-.2.9c-.2.4.2.9.7.9h.3c.6.2,1-.3,1.6-.3.2-.3.5-.2.7-.3s.4-.3.7-.3.4-.4.7-.3c.1-.2.3-.3.5-.3.5-.4,1-.7,1.6-.9.2-.3.6-.2.7-.5s.4-.2.6-.4c.3-.3.9-.3,1.2-.7.3-.4.7-.4,1-.8.2-.2.5-.3.7-.5s.6-.2.7-.5.5,0,.6-.4c.2-.3.5-.3.7-.5s.4-.5.7-.5c.2-.3.6-.4.9-.7.3-.3.7-.3.9-.7.2-.3.6-.2.7-.5s.5-.2.7-.5c.2-.2.3-.4.6-.4s.3-.5.7-.5.3-.2.4-.3c.2-.2.3-.3.5-.5h.2c.4-.5,1-.7,1.4-1.1.4,0,.5-.7,1-.6.4-.5,1-.6,1.4-1.2,0,0,.1-.2.2-.2.4,0,.5-.5.8-.5s.3-.3.5-.3h1s.1.3,0,.3c-.1.2-.2.4-.5.4s-.2.2,0,.4v.2c-.2.2-.2.6,0,.7.2.2.2.5.2.8,0,0,0,0,0,0h.2c-.1-.4.4-.5.3-.9.3,0,.5-.3.8-.4v.4c-.1.2-.5.4.1.4s.2.2.2.3h-.9ZM315.2,89.2h-.2.2ZM316.2,89.2v-.2h0v.2h0ZM324.6,72.4c.2.2.4.2.5,0,0,0,.2,0,.3,0,.4,0,.6-.5,1.1-.3l.2-.2c.3,0,.6-.2.9-.4.3-.2.6-.5.9-.7.2,0,.5,0,.6-.4s.5-.2.6-.4c1-1.1,2-2.2,3-3.2,0-.4.5-.6.4-1.1v-.3q0-.3-.3-.2c-.5.2-.9.6-1.4.7-.3,0-.4.5-.7.6-.2,0-.4.4-.6.5-.3,0-.5.3-.7.5-.2.3-.5.3-.7.5-.3.3-.6.5-.8.9-.2.4-.7.4-.9.7-.8.8-1.5,1.6-2.3,2.5-.1,0-.2.3-.1.5h0ZM332.4,83.6v-.2h0v.2h0ZM332.9,82.9h-.4v.2h-.1c.1,0,.2,0,.4-.2h.1ZM332.5,81.4h0v-.2h0v.2ZM333,82.9c0,0,.2-.3.4-.6-.1,0-.3.3-.4.4h0v.2ZM333.4,82.4l-.4.4h0c.3,0,.5-.2.4-.4ZM335,81.5c0-.2,0-.3-.2-.2-.1,0-.1.4,0,.5h0v-.2h.2ZM335.5,78.6c0-.2-.2-.2-.3-.2,0,0-.1,0-.2,0,0,0,.1,0,.2,0h.3ZM335.3,79.1h-.2.2ZM335.5,81.5h0ZM337.1,78c0-.2-.2-.2-.3-.2,0,0-.1,0-.2,0,0,0,.1,0,.2,0h.3ZM337.6,79.9v.2h0v-.2h0ZM339.2,77.9v.3h-.3v-.3h.3ZM341.2,76.6v.2h0v-.2h0ZM341.8,76.2h0c0,0-.1.2-.2.2-.2,0,0-.2,0-.2h.2ZM342,76s0,0-.1.2h-.1q0,0,.1-.2h.1ZM342.6,73.9v-.2h0c-.1,0-.1.4,0,.5.1,0,.2,0,.2-.2h-.2ZM343,75.1h0v.2h0v-.2ZM345.4,70v.3h-.5c-.1.2-.4.2-.6.2s-.3,0-.3-.2c0-.4-.1-.7-.4-.9v-.2h.6q0,0,0,0h0c0-.4.3-.6.5-.8h.3c.1.2.1.4.3.6.1.2-.3.3-.2.5,0,0,0,.2-.2.2h-.1c-.1,0,0,0,0,0v.2h.6v.2ZM344.3,69.3h-.1.1ZM344.9,71.8c0,0-.1.2-.2.2,0,0-.3,0-.2,0,0,0,.1,0,.2,0h.1s.2,0,.2,0h-.1ZM345.5,70.3s0,0,.1.2h0s-.1,0-.2,0h0q0,0,.1,0ZM345.7,69.8c0,.2,0,.3-.3.3,0-.2,0-.3.3-.3ZM345.4,68.2h.2-.2ZM345.9,69.7h0c-.1,0-.2,0-.1,0v-.4h0c.1,0,.1.3,0,.4h.1ZM346.5,68.4h0c0,0-.1.2-.2.2-.2,0,0-.2,0-.2h.2ZM346.6,68.4h0c.1-.2.3-.4.4-.5,0,0,.1,0,.1,0,.1.3,0,.4-.4.4h-.1Z"/>
    <path class="st1" d="M370.4,70.8v.3c-.4,0-.6.3-.7.7,0,.2-.3.4-.5.5-.2.2-.1.5-.4.6-.2.2,0,.2,0,.2.1,0,.2,0,.3.2.1,0,.2,0,.2,0,0,0,0-.3.1-.3s.1.2.1.3c0,.2.2.3.2.4v.2h-.2c-.2-.2-.5-.2-.7,0-.1,0,0,0,0,.2q.2.3-.2.6c-.2,0-.3.3-.5.4-.1,0-.3,0-.4.2-.2.2-.4.4-.6.5.1.5-.4.3-.5.5-.2.2-.3.4-.6.5-.2,0-.2.4-.3.5q-.4.6-.5.8c0,.3-.2.4-.5.2q-.3,0-.3,0v.3h0c0,0,.1.2.2.2.3,0,.3-.3.5-.3.3,0,.2-.3.3-.4.1-.2.3,0,.5,0q0,.2-.2.3s-.1,0,0,.2c.2,0,.4,0,.4-.2v-.3c.4,0,.6-.3.9-.3s0-.2,0-.3c-.2-.2,0-.4,0-.6h.2c.1.2.3.2.4,0,.1,0,.2-.2.4-.4.2-.2.5-.3.8,0,.1,0,.3.2.4.2s.2.3,0,.4c0,0-.2.2-.3.3-.2,0-.2,0-.3,0-.3,0-.4,0-.4.3h0c0,0-.2,0-.2,0q0,.2.2.2c-.2.3-.4.6-.8.7h0s-.1-.2-.2,0l.2.2h0c0,.3-.2.3-.3.5h-.3c-.1,0-.2-.3-.4,0-.1.2-.3,0-.5,0s-.3,0-.3.3,0,.2-.2.2c-.4,0-.5.4-.8.6v.2h.6c0,.2-.2.3-.3.4-.2.2-.4.2-.5,0,0,0-.1,0-.2,0v.2s0,.2.1.2c0,0,.2.3,0,.3-.3,0-.6.4-.9.3v-.4c-.3-.4-.7-.5-1.1-.7,0,0-.2,0-.2,0v.4h-.1s-.2,0,0,.2l.2-.2h0c.3,0,.5,0,.6.2s.4.3.6.3v.5c-.3.3-.6.5-1,.7-.2,0-.5,0-.7,0,0,0-.1-.2-.3,0-.1.2-.3.3-.3.5h0s.2,0,0,.3c-.2.3-.3.6-.6.8-.4.4-.8.8-1.2,1.2-.3.3-.7.4-1,.7-.2.3-.5.6-.8.8,0,0-.1,0-.2,0-.4,0-.5.4-.8.5-.3,0-.6.2-.9.4h-.2c-.1,0-.2,0-.2,0v.5c0,0-.3,0-.4.2-.4.3-.7.9-1.3,1-.3.4-.9.3-1.3.7-.4,0-.6.4-1.1.3-.4,0-.9-.2-1.3.2h-.8c-.2-.2-.4-.2-.7-.2s-.7,0-1-.4c-.2-.2-.4-.4-.6-.7,0,0-.1-.2-.1-.3v-1.9c0-.3.4-.5.3-.9.3-.2.3-.5.3-.8v-.8h0c.3-.2,0-.5.2-.7s.2-.4.3-.6c.3-.5.4-1.1.9-1.4,0-.2.2-.4.3-.5,0-.2.2-.4.3-.5.1-.7.7-1.1,1-1.7.3-.3.5-.7.6-1,.1-.4.6-.5.6-.9.3-.2.3-.7.7-.9h0c-.1-.3.4-.4.3-.8.2-.2.5-.3.5-.7s.3-.4.5-.6c0-.3.4-.5.3-.8.2-.2.5-.4.5-.6,0-.3.3-.4.4-.6.2-.2.1-.5.4-.6s.2-.5.5-.7c.2-.2.3-.3.4-.6,0-.3.4-.4.5-.7,0-.3.4-.5.7-.8.1,0,0-.3.1-.5h0v-.2q.1,0-.1,0h0c-.5.2-.6.7-1,.8-.4,0-.6.4-.9.7-1.7,1.7-3.4,3.3-5.1,5-.2.2-.6.4-.7.8,0,.4-.4.5-.7.8-.2.3-.5.5-.7.7-.3.3-.6.5-.8.8-.2.2-.5.5-.7.7s-.5.5-.7.7-.5.5-.7.7c-.2,0-.2.3-.3.5,0,0-.3.2-.5.3-.3.2-.3.6-.6.8-.3.2-.6.5-.8.8-.2.2-.5.5-.7.7-.3.3-.6.5-.8.8-.2.2-.5.5-.7.7-.3.3-.6.5-.8.8-.2.2-.5.5-.7.7-.3.3-.6.5-.8.8-.2.2-.5.5-.7.7-.3.3-.6.5-1,.7-.3.2-.5.6-.9.8-.3,0-.6.5-1,.3h-.8c-.4.3-.8.4-1.3,0-.3-.2-.6,0-.9,0-.3,0-.5-.2-.6-.4,0-.2-.2-.4-.3-.5v-1c.4-.2.2-.6.4-.9.3-.4.2-.4.2-1.1s0-.6.3-.9c.3-.2.3-.7.7-.9,0-.4.5-.6.6-.9,0-.2.2-.3.3-.4.2-.3.5-.4.6-.8,0-.3.5-.3.5-.7s.2-.3.3-.4c.3-.2.4-.6.6-.9s.5-.4.6-.8c.1-.3.5-.6.8-.9-.1-.5.5-.5.5-.9s.6-.4.5-.8c0,0,.2-.2.2-.3.2-.3.6-.4.6-.8.2-.2.4-.4.7-.6.1,0,0-.3.1-.3.3-.3.3-.8.7-1s.4-.3.4-.6c.4-.3.6-.8.9-1.2.3-.3.4-.9.8-1.2,0,0,.1,0,.1-.2.2-.4.3-.7.6-1.1.3-.3.3-.8.7-1.1.3-.3.3-.8.7-1,.1,0,0-.3.1-.3.3-.2.2-.7.5-.8.3,0,.2-.5.4-.7.2-.2.2-.6.4-.9.2-.3.4-.5.6-.8.1-.3.2-.6.4-.9.6-.6.7-1.5,1.4-2,.2,0,.1-.3.2-.4.2-.2.4-.5.7-.6.3,0,.4.4.8.3.3.3.7.3,1.1.6.3.2.5.4.8.6.4.2.6.6.9.9.2.2.1.5.1.7h0c-.4.8-.8,1.6-1.2,2.4h0c-.2.3-.5.4-.5.8s-.2.5-.3.6c-.2.2-.1.6-.4.7v.4h-.1s-.2,0,0,.2l.2-.2h0c.4-.2.8-.4,1.1-.8.6-.7,1.3-1.3,1.9-1.9.3-.3.5-.6.8-.8s.6-.6,1-.8c.3,0,.6-.5.8-.8.2-.2.5-.2.7-.4.2-.3.5-.4.8-.6.3,0,.4-.5.7-.6s.6-.3.8-.6c.3,0,.5-.4.8-.3.2-.3.6-.2.8-.5.3,0,.4-.2.5-.2h.6c.2,0,.4,0,.6.2.5.6,1.1,1.1,1.6,1.7.2.7.8,1,1.2,1.5.3.3.5.5.5,1s0,1.2-.2,1.4c-.5,1-1,1.9-1.5,2.9-.2.3-.6.5-.6.9-.3.2-.3.6-.5.8-.3.2-.4.6-.7.9,0,.5-.5.5-.6.9,0,.4-.6.5-.6.9-.2.2-.4.4-.5.6,0,.3-.5.4-.5.7s-.2.4-.4.6c-.2.2-.2.6-.5.7s-.2.4-.4.6c-.2.2-.2.6-.5.7s-.2.5-.4.6c-.3.2-.4.6-.7.9-.2.3-.4.6-.4.9-.1.4-.5.4-.6.8,0,.3-.2.7-.5.8-.3.2-.3.5-.4.7-.2.3-.3.6-.6.8v.2h.2c.4-.3.6-.8,1-.9.4-.2.7-.5,1-.8.5-.4.8-1,1.5-1.2.5-.5.9-1,1.4-1.3.6-.3,1-.8,1.4-1.2.3-.3.7-.3.9-.6.2-.3.4-.7.9-.6.5-.5.9-.9,1.4-1.4.2-.2.5-.4.8-.5.4-.2.8-.3.8-.8,0,0,.3,0,.4-.2.1,0,.3,0,.4-.2.2,0,0-.2,0-.3-.1,0-.1-.2,0-.2.4,0,.7-.2.7-.7.6-.2.9-.7,1.4-1.1.1,0,.8,0,.9,0l.8.3ZM350.4,68.1h0ZM357.7,68.8h0c0,0,0,0,0,0ZM361.4,82.6h-.2c-.2,0-.3,0-.3.3v.2s0,0,.1.3l.2-.2h0c.1,0,.2-.3,0-.4l.2-.2ZM361.1,83.7h0v.2h0v-.2ZM362,81.9h-.2.2ZM362.2,80.9h-.2c-.1.2-.4.2-.4.5v.2c.2,0,.5-.4.4-.6h.2ZM362.2,82.6h-.1s-.2,0,0,.2l.2-.2h-.1ZM362.2,82.4h0c0,0,0,0,.1,0,0,0-.1,0-.2,0h.1ZM362.3,82.6h0v-.2q.1,0-.1.2h.1ZM362.5,79h0v.2h0v-.2ZM362.5,81.6h0ZM362.8,82.7h0s.1,0,.4-.2h0s-.1,0-.2,0c-.3,0-.4,0-.3.4h.1ZM363,78.9h0s-.2,0,0,.2v-.2c.1,0,0,0,0,0ZM363,78.9c0,0,0-.3.2-.5h0v.3h0l-.2.2ZM363.1,78.9h0c0-.2,0-.4-.2,0h.2ZM363.5,80.9v-.2h0v.2h0ZM363.4,78.1l.2-.2h-.1s-.2,0,0,.2h-.1ZM363.8,79.7v-.2h-.1l-.2.2v.2c.1,0,.2,0,.3,0,0,0,.1-.2.2-.3h-.2ZM363.6,77.9h0s0,0,.1-.2c0,0-.1,0-.1,0h0ZM363.6,77.9h0v-.2q.1,0-.1.2h.1ZM364.8,79.2h-.3s-.1.2-.1.3l.3.2v-.2s.3,0,.1-.2h0ZM365.1,76.9h-.1c-.1,0,0-.5-.3-.2-.2.2-.3.5-.3.8,0,0,0,0,.1.2h0c0-.3.2-.4.4-.4v-.2l.2-.2ZM364.6,79.8c0,0-.2.2-.2.3h0c.2,0,.6,0,.2-.4h0ZM365.1,75.1h-.1v-.2s-.1,0-.2,0h0q0,0-.1,0c-.1,0-.2.2-.3.3h.2c.2,0,.3,0,.4-.5h0v-.2c.1,0,.1.4.1.4ZM364.7,79.7s.2,0,.4,0h-.4ZM364.9,76.6h.1v-.2s-.1,0-.1,0h0ZM365,75.2h0ZM365.1,76.4h0ZM365.7,76.7h-.2.2ZM365.9,80.6s0,0-.1.2h-.1q0,0,.1-.2h.1ZM365.9,75.6h-.1s-.2,0,0,.2v-.2ZM365.9,75.6h0ZM368,74v-.2q-.2,0-.2.2c-.3,0-.5.1-.5.4v.4h-.6c-.1,0-.2,0-.2.3-.2,0-.3,0-.3.3q-.2,0-.3.3h.3v.4h.2c.2-.2.5-.5.7-.7s0-.3,0-.5c.4,0,.7,0,.8-.5h.2q0-.2-.2-.2v-.2ZM366.2,79.1h.2-.2ZM366.4,78.2h-.3c0,0,0-.2.2-.2v.2h0ZM366.5,75.3c0,.2,0,.3-.3.3v-.3h.3ZM366.5,75.3v-.3c.1,0,.2,0,.2.2h-.2ZM366.6,80v.2h0v-.2h0ZM366.5,74.4h.2-.2ZM367.7,78.9h0ZM368,74v.3c-.2,0-.3,0-.3-.3h.3ZM367.8,78.1h0v-.2h0v.2ZM368.5,78.2v-.3c.1,0,.2,0,.2.2h-.2ZM369.4,75.4h.2c0,.2,0,.4-.3.4,0,0-.1,0-.2,0h0s.2-.2.3-.3ZM369.4,75h.2-.2ZM370.4,73c0,.2-.1.3-.3.3s-.2,0-.2-.3.1-.3.3-.3.2,0,.2.3ZM371.6,69.6c-.4,0-.4.3-.5.5l-.2.2h0s-.1,0-.1-.2v-.8c0,0,.2-.2.4-.3l.2.2c.1,0,.2,0,.3,0,.1,0,.1.2,0,.2h0ZM371.1,71.7h-.2.2ZM372.7,68.1v.2c-.2.2-.3.3-.5.3,0,0-.1,0,0-.2s.2-.3.4-.3h.3-.2ZM373.5,67.4h0c-.2.2-.3.4-.6.3h-.3c.2,0,.5,0,.6-.3h.3ZM374,66.6v.2l-.2.2h0s0,0-.1-.2c0,0,0-.2.2-.3h.3-.2ZM374.6,65.8c0,0,0,.4-.1.4h-.2c-.1,0-.1-.2,0-.3,0,0,.2-.2.3-.2h0ZM376.2,64.2h0c0,0-.1.2-.2.2-.2,0,0-.2,0-.2h.2ZM376.5,63.9c0,.2,0,.3-.3.3,0-.2,0-.3.3-.3ZM376.7,63.7c0,.2,0,.3-.3.3,0-.2,0-.3.3-.3ZM377,63.5s0,0-.1.2h-.1q0,0,.2-.2h0Z"/>
    <path class="st1" d="M392,68.5v.5c-.3.2-.5.5-.9.7-.3,0-.5.5-.8.7-.2,0-.4.2-.5.3-.3.3-.6.7-.9.9-.4.2-.6.6-1,.7-.5.3-.9.7-1.4,1.1,0,0-.2,0-.3,0-.2,0,0,.2,0,.3.1,0,.1.2,0,.2-.4,0-.6.3-.8.6-.2.2-.4.4-.7.3q-.2,0-.3.2c-.4.4-.7.7-1.1,1.1-.1,0-.3,0-.4.2.6.5-.3.5-.3.8s-.5.3-.7.5-.5,0-.7,0-.3,0-.3.3h-.1s-.2,0,0,.2l.2-.2h.4c.1,0,0,.5,0,.7-.1.2-.4.3-.4.6-.4,0-.7,0-.8.6h-.1s-.2,0,0,.2l.2-.2h0c.4,0,.7-.2.8-.6h.4c.3-.2.5-.5.7-.7.3,0,.5-.3.7-.5s.4-.5.6-.6c.3,0,.6,0,.9,0s.3,0,.3-.3.2-.3.3-.4c0,0,.1,0,.2,0,.1.2.4.2.6.2,0,.3-.2.3-.4.5,0,0-.2.3-.3.3-.5,0-.5.5-1,.5s-.2.2-.2.4-.2,0-.3.2c-.2,0-.3.3-.5.3-.3,0-.1.3-.3.5-.2.2-.4.2-.6.4,0,.5-.5.7-.7,1-.1,0-.2.2-.4.2s-.1,0-.2.3c0,.3-.2.5-.4.8-.1.2-.2.5-.1.8,0,.4-.2.8-.6.8s-.4,0-.5.4c0,.2-.3.4-.5.6,0,0-.2.3-.3.3-.4,0-.6.5-.9.6-.2,0-.4.2-.5.4-.2,0-.3.3-.5.4-.5,0-.5.6-1,.5-.3.3-.8.5-1.1.8-.2.2-.6.2-.7.4-.2.3-.5.2-.7.5-.2.2-.5.3-.7.5s-.6,0-.7.4c-.3,0-.5.4-.8.3-.1.3-.6,0-.7.5-.6,0-1,.4-1.5.5-.2,0-.3.3-.5.3h-.5c-.6.4-1.2.2-1.9.2s-.7,0-1.5-.4c-.2,0-.3,0-.5,0,0,0-.8-.4-.9-.4-.4-.4-.8-.9-1.3-1.3-.3-.3-.3-.8-.6-1.2-.2-.2,0-.5-.1-.7v-2c0-.3,0-.6.2-.8.1,0,0-.5.2-.7s0-.7.4-.9c-.2-.4.2-.6.3-.9,0-.2.3-.4.2-.7,0-.3.4-.4.3-.7.2,0,.2-.5.4-.6.2-.2.2-.5.3-.7.1-.2.3-.4.3-.6,0-.4.6-.5.5-1,.3-.4.4-.9.7-1.3.3-.3.4-.8.7-1.2.2-.3.4-.6.6-.9.2-.2.4-.3.4-.6.3-.2.3-.7.6-.9,0-.3.3-.6.6-.8.3-.2.3-.6.6-.8.3-.2.3-.6.5-.8.2-.2.5-.3.6-.7,0-.4.5-.5.6-.8.2-.5.7-.8,1-1.3s.7-.9,1-1.3c.4-.4.8-.8,1.2-1.2.4-.4.8-.8,1.2-1.2.3-.3.7-.3.9-.6.2-.3.5-.6.8-.8.2-.2.5,0,.6-.4.1-.2.4-.4.6-.5.3,0,.4-.3.6-.4.2-.2.5,0,.6,0,.2-.2.5-.2.6-.4.2-.2.4,0,.6-.2h.7c.2,0,.3,0,.4-.2h.2c.1,0,.3.2.4.2h.5c.1,0,.2.2.4.2.3.3.7.4,1,.7.9.8.9.9,1.8,2.6.1.3.4.6.3.9,0,.3.2.4.2.5,0,.2,0,.4.1.6.2,0,.2.3.2.5v2.2c0,.4-.3.7-.3,1.2s-.2.3-.4.3c-.3,0-.7,0-1,0s-.6-.2-.8-.5c-.3-.4-.9-.5-1.2-.9-.6-.2-.9-.7-1.4-1.1,0,0-.1-.2-.1-.3,0-.4-.1-.6-.2-.9s-.3-.5-.5-.5c-.3,0-.7-.2-.9.2-.2.3-.7.4-1,.7-.3.4-.7.7-1,1s-.6.6-.9.9-.6.6-.9.9-.3.7-.6.9c-.3.2-.5.4-.7.8-.1.3-.5.6-.7.9,0,.4-.3.6-.6.8-.3.2-.2.6-.5.8-.3.2-.3.6-.6.8-.3.2-.2.6-.5.8-.2.2-.3.6-.4.8-.1.2-.3.3-.4.5,0,0,0,.3-.2.4-.5.4-.6,1.1-.9,1.6-.2.4-.4.8-.7,1.2-.3.5-.6,1.1-.9,1.7-.1.2-.4.4-.3.8,0,.3-.4.4-.3.7-.3.2-.2.5-.4.7-.2.2,0,.7-.3.9v.7c0,.2.2.3.4.2.2-.2.4-.3.7-.3h.4c.2-.4.6-.2.9-.3.8-.5,1.7-.9,2.6-1.3.2,0,.4-.2.5-.3.2,0,.3-.3.5-.4.2,0,.4-.2.5-.4.2-.2.6,0,.7-.5.1-.3.4-.2.6-.4.2-.2.4-.5.7-.6.2,0,.4-.2.5-.3.1,0,.3,0,.4-.2.2-.3.6-.3.8-.5.2-.2.4-.5.7-.6.4,0,.5-.5.8-.6.2,0,.4-.2.5-.3.2,0,.3-.3.5-.4.1,0,.2,0,.3-.2.3-.2.4-.6.8-.6s.5-.5.8-.6c.5-.2.7-.6,1.1-.8.4-.2.6-.6,1-.7.4-.2.7-.6,1.1-.8.4-.2.6-.6,1-.7.4-.2.7-.6,1.1-.8.4-.2.7-.5,1-.8.1-.2.5,0,.5-.3s.2-.3.4-.4c.3-.2.5-.6.9-.7.3,0,.5-.4.8-.6.2-.2.6-.2.7-.4.2-.2.4-.4.6-.6,0,0,.1,0,.2,0,.4,0,.4-.4.7-.5h.6l-.5-.5ZM378.7,80.3h-.2.2ZM379.2,79.4h-.1s-.2,0,0,.2l.2-.2h-.1ZM379.2,79.4c0,0,.1-.3.3-.5q-.3,0-.3.4h0ZM379.7,79s-.1,0-.4.4h0c.1,0,.2-.2.3-.3h.1ZM380,79.7h0ZM380.8,77.9h0ZM384.5,69.3v.2h0v-.2h0ZM385.5,76.8c0-.2,0-.3.3-.3,0,.2,0,.3-.3.3ZM385.7,76.5c0-.2,0-.3.3-.3,0,.2,0,.3-.3.3ZM386.2,76.4h-.2c0-.3.4-.3.3-.6,0,0,.1-.2.3-.2h.5c0,.2.1.5-.3.5s-.2.2-.2.3c0,.3-.2,0-.3,0h0ZM387,75.5v-.5c0,0,0-.3.2-.3.4,0,.3-.3.4-.4h.2v.6c0,.4-.2.6-.8.7h0ZM387.1,74.1v-.2h0v.2h0ZM387.8,74.2h0q0,0,.1-.2h0s0,0-.1.2h-.1.1ZM388.8,73.2v.2h0v-.2h0ZM392.2,68v.4c0,0-.1.2-.3.2v-.4c0,0,.1-.2.3-.2ZM392.5,67.7c0,.2,0,.3-.3.3,0-.2,0-.3.3-.3ZM392.7,67.5s0,0-.1.2h-.1q0,0,.1-.2h.1Z"/>
    <path class="st1" d="M410.4,73.2h0c0,.2,0,0-.2,0-.4-.3-.4-.2-.6,0-.3.2-.1.6-.4.8.6.6-.3.3-.3.6h0c-.5,0-.8.2-1.1.6-.1.2-.3.3-.5.3s0,.5-.3.5-.4.2-.5.3c-.2.2,0,.4-.3.6-.1,0-.2.2-.4,0h0c0,0-.1,0-.1,0s0,.2.1.4c.2.4,0,.8-.5.8s-.2,0-.2-.3h.2q0-.2-.2-.2v-.2q-.2,0-.2.2h-.2q0,.2.2.2c.1.4-.2.5-.3.8,0,0,0,.3-.2.2v-.2c0-.3-.3-.4-.4-.2-.1,0-.5.3-.1.6v.2h-.6l-.5.4c0,0,.1.2.2.3l.2.2c.1,0,.1.2,0,.2-.2,0-.4,0-.5.3,0,0-.1,0-.2,0,0-.2,0-.6-.3-.2-.2.2-.3,0-.5,0s-.2,0-.2.2h.2c.5,0,.6,0,.5.3,0,.3-.3.2-.5.2h0c0,0-.1-.3-.2,0,0,0,0,0,.2.2h0c0,.2.2.5,0,.5-.5,0-.7.5-1,.8-.2.2-.2,0-.3,0h-.2c0,.2,0,.3-.3.5-.4.2-.8.4-1.1.8-.2.2-.3.5-.6.5s-.4.2-.5.4c-.2.3-.5.2-.6.4-.1.2-.2,0-.3,0s-.2,0-.2,0c0,.4-.2.7-.6.8-.4,0-.5.6-.9.6-.3.3-.6.4-.9.7-.3.3-.8.4-1.2.7-.4.3-.9.4-1.3.7-.3.3-.7,0-.9.4-.3,0-.5.4-.9.4s-.3.2-.5.3c-.2,0-.4,0-.6.2h0c-.3,0-.7,0-.9,0-.2.2-.5.2-.7.2h-2c-.3,0-.5,0-.7.3h-.2c-.2,0-.3-.4-.5,0-.5,0-1.1.3-1.6-.2h-.2c-.4.2-.5-.3-.8-.3s-.4-.4-.5-.7c0,0-.2-.3-.4-.4-.3,0-.4,0-.4-.4s-.2-.2-.2-.3c0-.3,0-.6-.3-.9-.1,0,0-.4,0-.7v-3.1c0-.4-.2-.8.1-1.1.3-.3,0-.6.1-.9h0c.3-.4.4-.8.5-1.1,0-.4.3-.6.4-1,0-.2.2-.3.2-.5v-.4c.6-.6.8-1.5,1.2-2.2.1-.2.2-.4.2-.6s.2-.3.3-.4c.3-.2.2-.6.4-.8.1,0,0-.4.2-.4.3-.2.3-.6.5-.9.2-.2.5-.4.6-.7,0-.4.4-.5.5-.8,0-.4.3-.5.5-.8.2-.2.2-.5.4-.8,0-.2.2-.3.3-.4.2-.4.7-.5.8-1.1,0,0,.1-.2.2,0,.6,0,.9-.4,1.1-.8s.4-.6.6-.8c.5,0,.7-.6,1.1-.9.3-.2.5-.5.7-.8.3-.2.4-.5.8-.7.3,0,.5-.5.8-.7s.5-.3.7-.5.3-.4.6-.5c.3,0,.4-.4.7-.6,0,0,.1-.2.2-.2.3,0,.4-.3.7-.3s.4-.4.6-.5c.2,0,.4,0,.5-.3.3,0,.4-.2.7-.3.5,0,.9-.6,1.5-.6.1-.2.3-.2.6-.2h2.9c.2.4.6,0,.8.3.1,0,.3.2.4.2,0,0,.2.2.3.3.2.2.4.4.6.6s0,.3,0,.4c0,.2,0,.3.2.5.2.4.4.8.5,1.2.2.4,0,.9,0,1.4s0,.7.2.9v.3c-.4.4-.2.8-.3,1.3v.2c-.3.2,0,.6-.3.9-.2.3-.3.6-.4.9,0,0,0,.2-.1.2-.4.2-.4.8-.7,1.1-.3.3-.4.8-.7,1.1-.3.3-.6.6-.9,1-.3.3-.6.8-.9,1s-.8.6-1.2,1c-.2.2-.5,0-.6.4-.1.2-.3.4-.6.4-.2.3-.7.3-.9.7-.4,0-.6.5-1,.4-.2,0-.2,0-.3.2-.3,0-.6.5-1,.4-.3.2-.6.3-.9.3s-.7.3-1.1.3h-1c-.4,0-.7.3-1.1.3h-2.2c-.2,0-.3,0-.5-.2q-.3-.2-.4,0c-.4.3-.6.8-.8,1.3-.2.4-.3.7-.5,1-.4.4-.5,1-.7,1.5,0,.2-.4.4-.3.7s-.3.4-.3.7c.1.4-.3.6-.3,1s-.1.6-.2.9c-.2.4.2.9.7.9h.3c.6.2,1-.3,1.6-.3.2-.3.5-.2.7-.3s.4-.3.7-.3.4-.4.7-.3c.1-.2.3-.3.5-.3.5-.4,1-.7,1.6-.9.2-.3.6-.2.7-.5s.4-.2.6-.4c.3-.3.9-.3,1.2-.7.3-.4.7-.4,1-.8.2-.2.5-.3.7-.5s.6-.2.7-.5.5,0,.6-.4c.2-.3.5-.3.7-.5s.4-.5.7-.5c.2-.3.6-.4.9-.7.3-.3.7-.3.9-.7.2-.3.6-.2.7-.5s.5-.2.7-.5c.2-.2.3-.4.6-.4s.3-.5.7-.5.3-.2.4-.3c.2-.2.3-.3.5-.5h.2c.4-.5,1-.7,1.4-1.1.4,0,.5-.7,1-.6.4-.5,1-.6,1.4-1.2,0,0,.1-.2.2-.2.4,0,.5-.5.8-.5s.3-.3.5-.3h1s.1.3,0,.3c-.1.2-.2.4-.5.4s-.2.2,0,.4v.2c-.2.2-.2.6,0,.7.2.2.2.5.2.8,0,0,0,0,0,0h.2c-.1-.4.4-.5.3-.9.3,0,.5-.3.8-.4v.4c-.1.2-.5.4.1.4s.2.2.2.3h-.9ZM381,89.2h-.2.2ZM382,89.2v-.2h0v.2h0ZM390.4,72.4c.2.2.4.2.5,0,0,0,.2,0,.3,0,.4,0,.6-.5,1.1-.3l.2-.2c.3,0,.6-.2.9-.4.3-.2.6-.5.9-.7.2,0,.5,0,.6-.4s.5-.2.6-.4c1-1.1,2-2.2,3-3.2,0-.4.5-.6.4-1.1v-.3q0-.3-.3-.2c-.5.2-.9.6-1.4.7-.3,0-.4.5-.7.6-.2,0-.4.4-.6.5-.3,0-.5.3-.7.5-.2.3-.5.3-.7.5-.3.3-.6.5-.8.9-.2.4-.7.4-.9.7-.8.8-1.5,1.6-2.3,2.5-.1,0-.2.3-.1.5h0ZM398.1,83.6v-.2h0v.2h0ZM398.7,82.9h-.4v.2h-.1c.1,0,.2,0,.4-.2h.1ZM398.2,81.4h0v-.2h0v.2ZM398.7,82.9c0,0,.2-.3.4-.6-.1,0-.3.3-.4.4h0v.2ZM399.2,82.4l-.4.4h0c.3,0,.5-.2.4-.4ZM400.8,81.5c0-.2,0-.3-.2-.2-.1,0-.1.4,0,.5h0v-.2h.2ZM401.3,78.6c0-.2-.2-.2-.3-.2,0,0-.1,0-.2,0,0,0,.1,0,.2,0h.3ZM401,79.1h-.2.2ZM401.3,81.5h0ZM402.9,78c0-.2-.2-.2-.3-.2,0,0-.1,0-.2,0,0,0,.1,0,.2,0h.3ZM403.3,79.9v.2h0v-.2h0ZM404.9,77.9v.3h-.3v-.3h.3ZM407,76.6v.2h0v-.2h0ZM407.5,76.2h0c0,0-.1.2-.2.2-.2,0,0-.2,0-.2h.2ZM407.8,76s0,0-.1.2h-.1q0,0,.1-.2h.1ZM408.3,73.9v-.2h0c-.1,0-.1.4,0,.5.1,0,.2,0,.2-.2h-.2ZM408.7,75.1h0v.2h0v-.2ZM411.2,70v.3h-.5c-.1.2-.4.2-.6.2s-.3,0-.3-.2c0-.4-.1-.7-.4-.9v-.2h.6q0,0,0,0h0c0-.4.3-.6.5-.8h.3c.1.2.1.4.3.6.1.2-.3.3-.2.5,0,0,0,.2-.2.2h-.1c-.1,0,0,0,0,0v.2h.6v.2ZM410,69.3h-.1.1ZM410.6,71.8c0,0-.1.2-.2.2,0,0-.3,0-.2,0,0,0,.1,0,.2,0h.1s.2,0,.2,0h-.1ZM411.3,70.3s0,0,.1.2h0s-.1,0-.2,0h0q0,0,.1,0ZM411.4,69.8c0,.2,0,.3-.3.3,0-.2,0-.3.3-.3ZM411.2,68.2h.2-.2ZM411.7,69.7h0c-.1,0-.2,0-.1,0v-.4h0c.1,0,.1.3,0,.4h.1ZM412.2,68.4h0c0,0-.1.2-.2.2-.2,0,0-.2,0-.2h.2ZM412.3,68.4h0c.1-.2.3-.4.4-.5,0,0,.1,0,.1,0,.1.3,0,.4-.4.4h-.1Z"/>
    <path class="st1" d="M424.3,74.8c0,0-.2.2-.3.2-.3,0-.3.2-.3.4,0,.3,0,.5-.4.5s-.4,0-.5,0c-.2.2-.5.5-.7.7-.3.2,0,.3,0,.4l.2.2h0c0,0-.1.2-.2.3h-1.1c-.2.3,0,.7-.1,1.2h-.1s-.2,0,0,.3c0,0,.1,0,.2-.2h0c.3,0,.4-.3.5-.5.3-.3.4-.3.6.2.1.3.4.2.6.2,0,.3.2.3.4.3s.3.3.2.5l-.2.2c-.3.2-.4.5-.4.9s0,.5-.5.5,0,.2,0,.3c.2.3.2.5-.1.5s-.4.2-.4.4h-.1c-.3,0-.5,0-.5.5,0,0-.3,0-.5.2s-.1.4-.2.5c-.2,0-.4,0-.5.2h-.1c-.4.5-.8,1-1.3,1.2s-.8.7-1.2,1c-.2.2-.5,0-.7.4-.2.4-.8.3-1,.7-.2.4-.7.4-1,.7-.2.2-.5.3-.7.4-.3.2-.7,0-.8.5-.1.3-.5.3-.7.4-.5.2-1,.5-1.6.7-.5.2-1,.5-1.4.7s-.8.3-1.1.3-.5.2-.7.3h-.8c-.1,0-.3,0-.4,0-.4.2-.7,0-1.1,0-.1,0-.2-.2-.3-.2-.4,0-.8,0-1.2-.2-.3-.2-.6-.3-.9-.5s-.8-.3-1-.7c0-.2-.2,0-.4-.2-.4,0-1-.4-1.2-.6-.4-.4-.7-.9-1.2-1.3-.3-.3-.3-.7-.6-1,.1-.6-.4-1-.3-1.7v-1.6c0-.3.4-.8.7-1,.1,0,.2-.2.2-.3.2-.7.8-1.1,1.1-1.7,0-.2.2-.3.5-.3h.9c.2,0,.4,0,.6-.2h.4c.1,0,.3.2.5.3.2,0,.3.4.6.3,0,.2.2.4.3.6.1.2.4.3.4.6-.1.5.4.8.2,1.2-.2.5.4.8.3,1.4,0,0,.2.2.3,0,.2,0,.3-.4.6-.3.4-.5,1.1-.7,1.6-1.2.2-.3.3-.6.5-.8.2-.2.1-.4.2-.7s.4-.3.3-.6c0-.3,0-.5.3-.6h0v-1.1c.2-.3.3-.6.3-.9v-1c0-.5.4-.7.4-1.2v-2.6c.5-.7.3-1.5.4-2.2,0-.4.5-.6.4-1.1,0-.3,0-.7.3-.9v-.3c-.2-.6.5-.9.4-1.5.5-.2.1-.9.5-1.1,0-.4.4-.6.4-1,.3,0,.2-.5.4-.7.2-.2.4-.3.4-.5,0-.3.4-.4.3-.8.2-.2.3-.3.5-.5.5-.5,1-.9,1.5-1.4.4-.4.7-.8,1.2-1,.5-.3,1-.5,1.6-.7h2.5c.3,0,.6,0,.8,0,.2.2.4.2.6.2.3,0,.5,0,.7.3.2,0,.5,0,.7.3.1.2.1,0,0,.4-.2.4-.2.8.2,1,.1,0,.3,0,.5.2.2.2.4.3.3.6v2.1c-.3.2-.2.6-.4.7-.1,0-.2.3-.3.2-.5,0-.9.2-1.3.2s-.7,0-.9,0c-.3-.2-.6-.2-.8-.5,0,0-.4,0-.4.2s0,.4-.3.3h-.8c-.3.3-.7.7-1,1,0,0,0,.3-.2.4-.5.5-.8,1.2-1.1,1.7h0v1c0,.2-.4.3-.3.6.2.5-.4.8-.3,1.2v2.5c0,.5-.4.8-.4,1.3v1.3c-.5.5-.3,1.1-.3,1.6s-.4.4-.3.8v.9c-.4.2-.3.7-.3,1.1s0,.3.3,0c.1,0,.3,0,.4,0,.3-.2.5-.6.9-.6,0,0,.1,0,.1-.2,0-.3.3-.5.5-.6.3,0,.6-.2.9-.3.3,0,.4-.6.8-.5h.1c0-.3.2-.4.5-.5.4,0,.6-.6,1.1-.8.4-.2.8-.6,1.1-.9.3-.4.7-.4,1-.7.3-.3.5-.7.9-.6.4-.4.8-.8,1.3-1.2,0,0,.2-.2.3-.2h.2c0,.2-.3.3-.3.6l-.4.2ZM410.7,77.7c0,0-.1.2-.1.4,0,0,0,.2.1.2,0,0,.1,0,.1-.2,0-.2,0-.3-.1-.4ZM411.3,73.1s-.1,0-.2,0-.2.2-.3.3h0l.2.2c.3,0,.4,0,.4-.4h-.1ZM410.9,74v-.2h0v.2h.1c0,0-.1,0-.1,0ZM411.2,80v-.2h-.1v.3h.1ZM412.1,70c-.2,0-.3,0-.4,0,0,.4-.5.7-.4,1.2,0,.2,0,.4-.2.5v.2h.3l.2-.2c.2-.4.4-.7.3-1.2,0-.2,0-.3.2-.4.2-.2,0-.2,0-.3h0ZM411.7,77.7s0-.2-.1-.2c0,0-.1,0-.1.2v.6h0v-.4l.2-.2ZM414.2,65.8v.2h0v-.2h0ZM414.5,65.2v.2h0v-.2h-.1c0,0,.1,0,.1,0ZM418.9,80.3v-.2h-.1v.3h.1ZM421.1,78.7h0ZM421.6,79.2s.1,0,.2,0h.1c0,0-.1,0-.2-.2h-.1ZM421.8,61.4c.1.2.2.3.4.4.2.2.3.5.6.3.3-.2-.1-.4-.2-.5-.1-.2-.2-.3-.2-.5s-.2-.2-.3-.2c0,0-.2,0-.2.2v.3h0ZM422.8,62.6h0c0,0,0,0,0,.1h0c0,0,0,0,.1-.1h-.1ZM422.8,78.8c0-.4,0-.8.1-1.1,0,0,.2-.2.3-.3h0v1.3h-.5.1ZM423.1,64.7c0,.2.3.2.5,0s0,0,.1,0c0,0-.2-.2-.3-.3,0,0-.1,0-.2,0,0,0-.1.3,0,.4h-.1ZM423.4,63.5s0,0,0,0h.2c0,0-.1,0-.2,0h0ZM423.8,78.5v.2h0v-.2h.1c0,0-.1,0-.1,0ZM424,79.2s.1,0,.2,0h0s-.1,0-.2,0h.1c0,0-.1,0-.1,0ZM424.7,79.5h0c0,0-.1.2-.2.2-.2,0,0-.2,0-.3h.2ZM425,79.2c0,.2,0,.3-.3.3,0-.2,0-.3.3-.3ZM425.2,78.9h0s0,0-.1.2h-.1c0,0,.1,0,.2-.2ZM426,73.5c-.3,0-.4,0-.6.3h-.3c.1-.3.3-.5.4-.8h.3c.1,0,.2.2.3.3.1,0,.1.3,0,.3h0ZM426.1,78.1h0c0,0-.1,0-.2,0h.2ZM427.5,71.3h0c0,0-.1,0-.2,0h.2ZM428.5,76.4v.2h0c0,0,0-.2.1-.3h0c0,0-.1,0-.1,0ZM429.8,69.6v.2h-.1c0,0,0,0,0,0h.1ZM431.7,68.7h0v-.2h0v.2Z"/>
  </g>
</svg>